<?xml version="1.0" encoding="utf-8"?>
<!-- Generator: Adobe Illustrator 23.0.5, SVG Export Plug-In . SVG Version: 6.00 Build 0)  -->
<svg version="1.1" xmlns="http://www.w3.org/2000/svg" xmlns:xlink="http://www.w3.org/1999/xlink" x="0px" y="0px"
	 viewBox="0 0 2000 2000" style="enable-background:new 0 0 2000 2000;" xml:space="preserve">
<style type="text/css">
	.st0{fill-rule:evenodd;clip-rule:evenodd;}
	.st1{fill-rule:evenodd;clip-rule:evenodd;fill:#A6F500;}
</style>
<g id="Background">
	<rect x="0" y="0" class="st0" width="2000" height="2000"/>
</g>
<g id="Pattern">
	<polygon class="st1" points="0,67.7 163.3,230.7 231.5,162.5 68.7,0 0,0 	"/>
	<polygon class="st1" points="636,0 636,68 567.8,0 431.3,0 567.6,136 267.6,136 267.6,232.4 732.4,232.4 732.4,0 	"/>
	<path class="st1" d="M1136,232.4V0h96.4v232.4H1136L1136,232.4z M1067.8,0L836.7,230.6l-68.2-68.2L931.3,0H1067.8z"/>
	<polygon class="st1" points="1364,0 1364,68 1432.2,0 1568.7,0 1432.4,136 1732.4,136 1732.4,232.4 1267.6,232.4 1267.6,0 	"/>
	<path class="st1" d="M2000,432.3l-163.3-163l-68.2,68.2l231.5,231V432.3L2000,432.3z M2000,636h-232.4v96.4H2000V636z"/>
	<path class="st1" d="M1864,232.4V0h-96.4v232.4H1864L1864,232.4z M1932.2,0l67.8,67.7V0H1932.2z"/>
	<polygon class="st1" points="1636,732.4 1636,432 1336.7,730.7 1268.5,662.5 1567.6,364 1267.6,364 1267.6,267.6 1732.4,267.6 
		1732.4,732.4 	"/>
	<polygon class="st1" points="864,267.6 864,568 1163.3,269.3 1231.5,337.5 932.4,636 1232.4,636 1232.4,732.4 767.6,732.4 
		767.6,267.6 	"/>
	<polygon class="st1" points="364,732.4 364,432 663.3,730.6 731.5,662.5 432.4,364 732.4,364 732.4,267.6 267.6,267.6 267.6,732.4 
			"/>
	<polygon class="st1" points="136,267.6 136,568 0,432.3 0,568.5 67.6,636 0,636 0,732.4 232.4,732.4 232.4,267.6 	"/>
	<path class="st1" d="M0,1067.7l163.3,163l68.2-68.2L0,931.4V1067.7L0,1067.7z M0,864h232.4v-96.4H0V864z"/>
	<polygon class="st1" points="636,767.6 636,1068 336.7,769.3 268.5,837.5 567.6,1136 267.6,1136 267.6,1232.4 732.4,1232.4 
		732.4,767.6 	"/>
	<polygon class="st1" points="1136,1232.4 1136,932 836.7,1230.6 768.5,1162.4 1067.6,864 767.6,864 767.6,767.6 1232.4,767.6 
		1232.4,1232.4 	"/>
	<polygon class="st1" points="1364,767.6 1364,1068 1663.3,769.3 1731.5,837.5 1432.4,1136 1732.4,1136 1732.4,1232.4 
		1267.6,1232.4 1267.6,767.6 	"/>
	<path class="st1" d="M2000,1432.3l-163.3-163l-68.2,68.2l231.5,231V1432.3L2000,1432.3z M2000,1636h-232.4v96.4H2000V1636z"/>
	<polygon class="st1" points="1864,1232.4 1864,932 2000,1067.7 2000,931.4 1932.4,864 2000,864 2000,767.6 1767.6,767.6 
		1767.6,1232.4 	"/>
	<polygon class="st1" points="1636,1732.4 1636,1432 1336.7,1730.6 1268.5,1662.4 1567.6,1364 1267.6,1364 1267.6,1267.6 
		1732.4,1267.6 1732.4,1732.4 	"/>
	<polygon class="st1" points="864,1267.6 864,1568 1163.3,1269.3 1231.5,1337.5 932.4,1635.9 1232.4,1635.9 1232.4,1732.4 
		767.6,1732.4 767.6,1267.6 	"/>
	<polygon class="st1" points="364,1732.4 364,1432 663.3,1730.6 731.5,1662.4 432.4,1364 732.4,1364 732.4,1267.6 267.6,1267.6 
		267.6,1732.4 	"/>
	<polygon class="st1" points="136,1267.6 136,1568 0,1432.3 0,1568.5 67.6,1635.9 0,1635.9 0,1732.4 232.4,1732.4 232.4,1267.6 	"/>
	<path class="st1" d="M68.7,2000L0,1931.4v68.6H68.7L68.7,2000z M0,1864h232.4v-96.4H0V1864z"/>
	<path class="st1" d="M636,1767.6V2000h96.4v-232.4H636L636,1767.6z M567.9,2000l-231.2-230.7l-68.2,68.2L431.3,2000H567.9z"/>
	<polygon class="st1" points="1136,2000 1136,1932 1067.8,2000 931.3,2000 1067.6,1864 767.6,1864 767.6,1767.6 1232.4,1767.6 
		1232.4,2000 	"/>
	<path class="st1" d="M1364,1767.6V2000h-96.4v-232.4H1364L1364,1767.6z M1432.1,2000l231.2-230.7l68.2,68.2L1568.7,2000H1432.1z"/>
	<polygon class="st1" points="1864,2000 1864,1932 1932.2,2000 2000,2000 2000,1931.4 1932.4,1864 2000,1864 2000,1767.6 
		1767.6,1767.6 1767.6,2000 	"/>
</g>
</svg>
