<?xml version="1.0" encoding="UTF-8"?>
<svg xmlns="http://www.w3.org/2000/svg" xmlns:xlink="http://www.w3.org/1999/xlink" version="1.1" viewBox="0 0 1417.3 1417.3">
  <defs>
    <style>
      .cls-1 {
        fill: none;
      }

      .cls-2 {
        fill: url(#Artdeco_17);
      }

      .cls-3 {
        fill: #f26743;
      }

      .cls-4 {
        fill: #e6cc83;
      }
    </style>
    <pattern id="Artdeco_17" data-name="Artdeco 17" x="0" y="0" width="287.6" height="204.6" patternTransform="translate(125.9 -207.6)" patternUnits="userSpaceOnUse" viewBox="0 0 287.6 204.6">
      <g>
        <rect class="cls-1" y="0" width="287.6" height="204.6"/>
        <path class="cls-4" d="M599.8,243.1l-4.5-7.7c-1.7-3-5-4.9-8.4-4.9h-1.1c.2-.3.4-.6.6-.9,1.8-3,1.8-6.7,0-9.7l-4.5-7.7c-1.7-3-5-4.9-8.4-4.9h-1.1c.2-.3.4-.6.6-.9,1.8-3,1.8-6.7,0-9.7l-4.5-7.7c-1.7-3-5-4.9-8.4-4.9h-1.1c.2-.3.4-.6.6-.9,1.8-3,1.8-6.7,0-9.7-1.8-3-4.9-4.9-8.4-4.9s-.6,0-.9,0l1.6-2.7c1.8-3,1.8-6.7,0-9.7s-4.9-4.9-8.4-4.9h-80.3c-3.1,0-5.9,1.4-7.7,3.8-1.8-2.4-4.6-3.8-7.7-3.8h-80.3c-3.1,0-5.9,1.4-7.7,3.8-1.8-2.4-4.6-3.8-7.7-3.8h-80.3c-3.5,0-6.7,1.8-8.4,4.9-1.8,3-1.8,6.7,0,9.7l4.5,7.7c1.7,3,5,4.9,8.4,4.9h1.1c-.2.3-.4.6-.6.9-1.8,3-1.8,6.7,0,9.7l4.5,7.7c1.7,3,5,4.9,8.4,4.9h1.1c-.2.3-.4.6-.6.9-1.8,3-1.8,6.7,0,9.7l4.5,7.7c1.7,3,5,4.9,8.4,4.9h1.1c-.2.3-.4.6-.6.9-1.8,3-1.8,6.7,0,9.7,1.8,3,4.9,4.9,8.4,4.9s.6,0,.9,0l-1.6,2.7c-1.8,3-1.8,6.7,0,9.7,1.8,3,4.9,4.9,8.4,4.9h80.3c3.1,0,5.9-1.4,7.7-3.8,1.8,2.4,4.6,3.8,7.7,3.8h80.3c3.1,0,5.9-1.4,7.7-3.8,1.8,2.4,4.6,3.8,7.7,3.8h80.3c3.5,0,6.7-1.8,8.4-4.9,1.8-3,1.8-6.7,0-9.7ZM578.5,214.2l4.5,7.7c1,1.8,1,3.9,0,5.7-1,1.8-2.9,2.9-5,2.9h-53.6c-2.1,0-3.9-1.1-5-2.9-1-1.8-1-3.9,0-5.7l.3-.5c.3-.4.6-.8.9-1.3l4-6.9c1.1-1.2,2.6-1.9,4.3-1.9h44.6c2,0,3.9,1.1,5,2.9ZM503.3,241.9l-.9-1.5c.3,0,.6,0,.9,0,.3,0,.6,0,.9,0l-.9,1.5ZM407.5,241.9l-.9-1.5c.3,0,.6,0,.9,0s.6,0,.9,0l-.9,1.5ZM320.1,225.9c-.2-.3-.4-.6-.6-.9h1.1c.8,0,1.7-.1,2.5-.3,0,1.7.4,3.4,1.3,5,.2.3.4.6.6.9h-1.1c-.8,0-1.7.1-2.5.3,0-1.7-.4-3.4-1.3-5ZM327.8,227.6c-1-1.8-1-3.9,0-5.7l.3-.5c.3-.4.6-.8.9-1.3l4-6.9c1.1-1.2,2.6-1.9,4.3-1.9h44.6c1.6,0,3.2.7,4.3,1.9l4,6.9c.3.5.6.9.9,1.3l.3.5c1,1.8,1,3.9,0,5.7-1,1.8-2.9,2.9-5,2.9h-53.6c-2.1,0-3.9-1.1-5-2.9ZM333.5,202.7c-.2-.3-.4-.6-.6-.9h1.1c.8,0,1.7-.1,2.5-.3,0,1.7.4,3.4,1.3,5,.2.3.4.6.6.9h-1.1c-.8,0-1.7.1-2.5.3,0-1.7-.4-3.4-1.3-5ZM346.9,179.5c-.2-.3-.4-.6-.6-.9h1.1c.8,0,1.7-.1,2.5-.3,0,1.7.4,3.4,1.3,5,.2.3.4.6.6.9h-1.1c-.8,0-1.7.1-2.5.3,0-1.7-.4-3.4-1.3-5ZM359.6,167.2l.9,1.5c-.3,0-.6,0-.9,0s-.6,0-.9,0l.9-1.5ZM455.4,167.2l.9,1.5c-.3,0-.6,0-.9,0s-.6,0-.9,0l.9-1.5ZM542.8,183.3c.2.3.4.6.6.9h-1.1c-.8,0-1.7.1-2.5.3,0-1.7-.4-3.4-1.3-5-.2-.3-.4-.6-.6-.9h1.1c.8,0,1.7-.1,2.5-.3,0,1.7.4,3.4,1.3,5ZM535.1,181.5c1,1.8,1,3.9,0,5.7l-.3.5c-.3.4-.6.8-.9,1.3l-4,6.9c-1.1,1.2-2.6,1.9-4.3,1.9h-44.6c-1.6,0-3.2-.7-4.3-1.9l-4-6.9c-.3-.5-.6-.9-.9-1.3l-.3-.5c-1-1.8-1-3.9,0-5.7s2.9-2.9,5-2.9h53.6c2.1,0,3.9,1.1,5,2.9ZM529.4,206.4c.2.3.4.6.6.9h-1.1c-.8,0-1.7.1-2.5.3,0-1.7-.4-3.4-1.3-5-.2-.3-.4-.6-.6-.9h1.1c.8,0,1.7-.1,2.5-.3,0,1.7.4,3.4,1.3,5ZM520.5,212.2l-4,6.9c-1.1,1.2-2.6,1.9-4.3,1.9h-17.9c-1.6,0-3.2-.7-4.3-1.9l-4-6.9c-.3-.4-.6-.9-.9-1.3l-.3-.5c-1-1.8-1-3.9,0-5.7,1-1.8,2.9-2.9,5-2.9h26.8c2.1,0,3.9,1.1,5,2.9,1,1.8,1,3.9,0,5.7l-.3.5c-.3.4-.6.8-.9,1.3ZM508.3,227.9c1,1.8,1,3.9,0,5.7-1,1.8-2.9,2.9-5,2.9-2.1,0-3.9-1.1-5-2.9s-1-3.9,0-5.7,2.9-2.9,5-2.9,3.9,1.1,5,2.9ZM424.7,212.2l-4,6.9c-1.1,1.2-2.6,1.9-4.3,1.9h-17.9c-1.6,0-3.2-.7-4.3-1.9l-4-6.9c-.3-.5-.6-.9-.9-1.3l-.3-.5c-1-1.8-1-3.9,0-5.7,1-1.8,2.9-2.9,5-2.9h26.8c2.1,0,3.9,1.1,5,2.9,1,1.8,1,3.9,0,5.7l-.3.5c-.3.4-.6.8-.9,1.3ZM412.5,227.9c1,1.8,1,3.9,0,5.7-1,1.8-2.9,2.9-5,2.9s-3.9-1.1-5-2.9c-1-1.8-1-3.9,0-5.7,1-1.8,2.9-2.9,5-2.9s3.9,1.1,5,2.9ZM382.7,201.5c.8.2,1.6.3,2.5.3h1.1c-.2.3-.4.6-.6.9-.9,1.6-1.3,3.3-1.3,5-.8-.2-1.6-.3-2.5-.3h-1.1c.2-.3.4-.6.6-.9.9-1.6,1.3-3.3,1.3-5ZM429.3,202.7c-.2-.3-.4-.6-.6-.9h1.1c.8,0,1.7-.1,2.5-.3,0,1.7.4,3.4,1.3,5,.2.3.4.6.6.9h-1.1c-.8,0-1.7.1-2.5.3,0-1.7-.4-3.4-1.3-5ZM437.1,204.4c-1-1.8-1-3.9,0-5.7l.3-.5c.3-.4.6-.8.9-1.3l4-6.9c1.1-1.2,2.6-1.9,4.3-1.9h17.9c1.6,0,3.2.7,4.3,1.9l4,6.9c.3.4.6.9.9,1.3l.3.5c1,1.8,1,3.9,0,5.7-1,1.8-2.9,2.9-5,2.9h-26.8c-2.1,0-3.9-1.1-5-2.9ZM450.5,181.3c-1-1.8-1-3.9,0-5.7,1-1.8,2.9-2.9,5-2.9s3.9,1.1,5,2.9c1,1.8,1,3.9,0,5.7-1,1.8-2.9,2.9-5,2.9s-3.9-1.1-5-2.9ZM477.2,206.4c.9-1.6,1.3-3.3,1.3-5,.8.2,1.6.3,2.5.3h1.1c-.2.3-.4.6-.6.9-.9,1.6-1.3,3.3-1.3,5-.8-.2-1.6-.3-2.5-.3h-1.1c.2-.3.4-.6.6-.9ZM468.1,179.5c-.9,1.6-1.3,3.3-1.3,5-.8-.2-1.6-.3-2.5-.3h-1.1c.2-.3.4-.6.6-.9.9-1.6,1.3-3.3,1.3-5,.8.2,1.6.3,2.5.3h1.1c-.2.3-.4.6-.6.9ZM447,183.3c.2.3.4.6.6.9h-1.1c-.8,0-1.7.1-2.5.3,0-1.7-.4-3.4-1.3-5-.2-.3-.4-.6-.6-.9h1.1c.8,0,1.7-.1,2.5-.3,0,1.7.4,3.4,1.3,5ZM439.2,181.5c1,1.8,1,3.9,0,5.7l-.3.5c-.3.4-.6.8-.9,1.3l-4,6.9c-1.1,1.2-2.6,1.9-4.3,1.9h-44.6c-1.6,0-3.2-.7-4.3-1.9l-4-6.9c-.3-.5-.6-.9-.9-1.3l-.3-.5c-1-1.8-1-3.9,0-5.7,1-1.8,2.9-2.9,5-2.9h53.6c2.1,0,3.9,1.1,5,2.9ZM372.3,179.5c-.9,1.6-1.3,3.3-1.3,5-.8-.2-1.6-.3-2.5-.3h-1.1c.2-.3.4-.6.6-.9.9-1.6,1.3-3.3,1.3-5,.8.2,1.6.3,2.5.3h1.1c-.2.3-.4.6-.6.9ZM354.6,181.3c-1-1.8-1-3.9,0-5.7,1-1.8,2.9-2.9,5-2.9s3.9,1.1,5,2.9c1,1.8,1,3.9,0,5.7-1,1.8-2.9,2.9-5,2.9s-3.9-1.1-5-2.9ZM342.4,196.9l4-6.9c1.1-1.2,2.6-1.9,4.3-1.9h17.9c1.6,0,3.2.7,4.3,1.9l4,6.9c.3.5.6.9.9,1.3l.3.5c1,1.8,1,3.9,0,5.7-1,1.8-2.9,2.9-5,2.9h-26.8c-2.1,0-3.9-1.1-5-2.9-1-1.8-1-3.9,0-5.7l.3-.5c.3-.4.6-.8.9-1.3ZM394.8,229.6c.9-1.6,1.3-3.3,1.3-5,.8.2,1.6.3,2.5.3h1.1c-.2.3-.4.6-.6.9-.9,1.6-1.3,3.3-1.3,5-.8-.2-1.6-.3-2.5-.3h-1.1c.2-.3.4-.6.6-.9ZM415.9,225.9c-.2-.3-.4-.6-.6-.9h1.1c.8,0,1.7-.1,2.5-.3,0,1.7.4,3.4,1.3,5,.2.3.4.6.6.9h-1.1c-.8,0-1.7.1-2.5.3,0-1.7-.4-3.4-1.3-5ZM423.7,227.6c-1-1.8-1-3.9,0-5.7l.3-.5c.3-.4.6-.8.9-1.3l4-6.9c1.1-1.2,2.6-1.9,4.3-1.9h44.6c1.6,0,3.2.7,4.3,1.9l4,6.9c.3.5.6.9.9,1.3l.3.5c1,1.8,1,3.9,0,5.7-1,1.8-2.9,2.9-5,2.9h-53.6c-2.1,0-3.9-1.1-5-2.9ZM490.6,229.6c.9-1.6,1.3-3.3,1.3-5,.8.2,1.6.3,2.5.3h1.1c-.2.3-.4.6-.6.9-.9,1.6-1.3,3.3-1.3,5-.8-.2-1.6-.3-2.5-.3h-1.1c.2-.3.4-.6.6-.9ZM511.8,225.9c-.2-.3-.4-.6-.6-.9h1.1c.8,0,1.7-.1,2.5-.3,0,1.7.4,3.4,1.3,5,.2.3.4.6.6.9h-1.1c-.8,0-1.7.1-2.5.3,0-1.7-.4-3.4-1.3-5ZM565.1,191l4.5,7.7c1,1.8,1,3.9,0,5.7-1,1.8-2.9,2.9-5,2.9h-26.8c-2.1,0-3.9-1.1-5-2.9-1-1.8-1-3.9,0-5.7l.3-.5c.3-.4.6-.8.9-1.3l4-6.9c1.1-1.2,2.6-1.9,4.3-1.9h17.9c2,0,3.9,1.1,5,2.9ZM556.2,175.5c1,1.8,1,3.9,0,5.7-1,1.8-2.9,2.9-5,2.9s-3.9-1.1-5-2.9c-1-1.8-1-3.9,0-5.7,1-1.8,2.9-2.9,5-2.9s3.9,1.1,5,2.9ZM463.2,155.4h80.3c2.1,0,3.9,1.1,5,2.9,1,1.8,1,3.9,0,5.7l-4.5,7.7c-1,1.8-2.9,2.9-5,2.9h-71.4c-2,0-3.9-1.1-5-2.9l-4.5-7.7c-.5-.9-.8-1.9-.8-2.9h0c0-1,.3-2,.8-2.9,1-1.8,2.9-2.9,5-2.9ZM367.3,155.4h80.3c2.1,0,3.9,1.1,5,2.9.5.9.8,1.9.8,2.9h0c0,1-.3,2-.8,2.9l-4.5,7.7c-1,1.8-2.9,2.9-5,2.9h-71.4c-2,0-3.9-1.1-5-2.9l-4.5-7.7c-.5-.9-.8-1.9-.8-2.9h0c0-1,.3-2,.8-2.9,1-1.8,2.9-2.9,5-2.9ZM271,171.7l-4.5-7.7c-1-1.8-1-3.9,0-5.7,1-1.8,2.9-2.9,5-2.9h80.3c2.1,0,3.9,1.1,5,2.9.5.9.8,1.9.8,2.9h0c0,1-.3,2-.8,2.9l-4.5,7.7c-1,1.8-2.9,2.9-5,2.9h-71.4c-2,0-3.9-1.1-5-2.9ZM284.4,194.9l-4.5-7.7c-1-1.8-1-3.9,0-5.7,1-1.8,2.9-2.9,5-2.9h53.6c2.1,0,3.9,1.1,5,2.9,1,1.8,1,3.9,0,5.7l-.3.5c-.3.4-.6.8-.9,1.3l-4,6.9c-1.1,1.2-2.6,1.9-4.3,1.9h-44.6c-2,0-3.9-1.1-5-2.9ZM297.8,218.1l-4.5-7.7c-1-1.8-1-3.9,0-5.7,1-1.8,2.9-2.9,5-2.9h26.8c2.1,0,3.9,1.1,5,2.9,1,1.8,1,3.9,0,5.7l-.3.5c-.3.4-.6.8-.9,1.3l-4,6.9c-1.1,1.2-2.6,1.9-4.3,1.9h-17.9c-2,0-3.9-1.1-5-2.9ZM306.7,233.6c-1-1.8-1-3.9,0-5.7,1-1.8,2.9-2.9,5-2.9s3.9,1.1,5,2.9c1,1.8,1,3.9,0,5.7-1,1.8-2.9,2.9-5,2.9s-3.9-1.1-5-2.9ZM399.8,253.7h-80.3c-2.1,0-3.9-1.1-5-2.9-1-1.8-1-3.9,0-5.7l4.5-7.7c1-1.8,2.9-2.9,5-2.9h71.4c2,0,3.9,1.1,5,2.9l4.5,7.7c.5.9.8,1.9.8,2.9,0,0,0,0,0,0,0,1-.3,2-.8,2.9-1,1.8-2.9,2.9-5,2.9ZM495.6,253.7h-80.3c-2.1,0-3.9-1.1-5-2.9-.5-.9-.8-1.9-.8-2.9,0,0,0,0,0,0,0-1,.3-2,.8-2.9l4.5-7.7c1-1.8,2.9-2.9,5-2.9h71.4c2,0,3.9,1.1,5,2.9l4.5,7.7c.5.9.8,1.9.8,2.9h0c0,1-.3,2-.8,2.9-1,1.8-2.9,2.9-5,2.9ZM596.4,250.8c-1,1.8-2.9,2.9-5,2.9h-80.3c-2.1,0-3.9-1.1-5-2.9-.5-.9-.8-1.9-.8-2.9h0c0-1,.3-2,.8-2.9l4.5-7.7c1-1.8,2.9-2.9,5-2.9h71.4c2,0,3.9,1.1,5,2.9l4.5,7.7c1,1.8,1,3.9,0,5.7Z"/>
        <g>
          <path class="cls-4" d="M68.6,199.7h6.6c1.1,0,2-.9,2-2s-.9-2-2-2h-6.6c-1.1,0-2,.9-2,2s.9,2,2,2Z"/>
          <path class="cls-4" d="M171.1,195.7h-6.6c-1.1,0-2,.9-2,2s.9,2,2,2h6.6c1.1,0,2-.9,2-2s-.9-2-2-2Z"/>
          <path class="cls-4" d="M210.2,190.2h11.1c1.1,0,2-.9,2-2s-.9-2-2-2h-11.1c-1.1,0-2,.9-2,2s.9,2,2,2Z"/>
          <path class="cls-4" d="M197.4,189.9c0,0,.2.1.3.2.1,0,.2,0,.4.1.1,0,.3,0,.4,0,.5,0,1-.2,1.4-.6.4-.4.6-.9.6-1.4s-.2-1-.6-1.4c-.5-.5-1.2-.7-1.8-.5-.1,0-.3,0-.4.1s-.2.1-.3.2c-.1,0-.2.1-.3.2-.4.4-.6.9-.6,1.4s.2,1,.6,1.4c0,0,.2.2.3.2Z"/>
          <path class="cls-4" d="M231.8,189.9c.1,0,.2.1.4.2.1,0,.2,0,.4.1.1,0,.3,0,.4,0,.5,0,1-.2,1.4-.6.4-.4.6-.9.6-1.4s-.2-1-.6-1.4-1.2-.7-1.8-.5c-.1,0-.2,0-.4.1s-.2.1-.4.2c0,0-.2.1-.3.2-.4.4-.6.9-.6,1.4s.2,1,.6,1.4c0,0,.2.2.3.2Z"/>
          <path class="cls-4" d="M196.9,167h37.6c1.1,0,2-.9,2-2s-.9-2-2-2h-37.6c-1.1,0-2,.9-2,2s.9,2,2,2Z"/>
          <path class="cls-4" d="M244.5,165.8c0,.1.1.2.2.4,0,.1.2.2.2.3,0,0,.2.2.3.2.1,0,.2.1.3.2s.2,0,.4.1c.1,0,.3,0,.4,0s.3,0,.4,0c.1,0,.2,0,.4-.1s.2-.1.3-.2c.1,0,.2-.2.3-.2,0,0,.2-.2.2-.3,0-.1.1-.2.2-.4,0-.1,0-.2.1-.4,0-.1,0-.3,0-.4s0-.3,0-.4c0-.1,0-.3-.1-.4,0-.1-.1-.2-.2-.3,0-.1-.2-.2-.2-.3,0,0-.2-.2-.3-.2-.1,0-.2-.1-.3-.2s-.2,0-.4-.1c-.3,0-.5,0-.8,0-.1,0-.3,0-.4.1s-.2.1-.3.2c-.1,0-.2.2-.3.2,0,0-.2.2-.2.3,0,.1-.1.2-.2.3,0,.1,0,.2-.1.4,0,.1,0,.3,0,.4s0,.3,0,.4c0,.1,0,.2.1.4Z"/>
          <path class="cls-4" d="M18.5,190.2h11.1c1.1,0,2-.9,2-2s-.9-2-2-2h-11.1c-1.1,0-2,.9-2,2s.9,2,2,2Z"/>
          <path class="cls-4" d="M5.2,167h37.6c1.1,0,2-.9,2-2s-.9-2-2-2H5.2c-1.1,0-2,.9-2,2s.9,2,2,2Z"/>
          <path class="cls-4" d="M114.3,190.2h11.1c1.1,0,2-.9,2-2s-.9-2-2-2h-11.1c-1.1,0-2,.9-2,2s.9,2,2,2Z"/>
          <path class="cls-4" d="M101,167h37.6c1.1,0,2-.9,2-2s-.9-2-2-2h-37.6c-1.1,0-2,.9-2,2s.9,2,2,2Z"/>
          <path class="cls-4" d="M148.6,165.8c0,.1.1.2.2.4s.2.2.2.3c0,0,.2.2.3.2.1,0,.2.1.4.2.1,0,.2,0,.4.1.1,0,.3,0,.4,0s.3,0,.4,0c.1,0,.2,0,.4-.1.1,0,.2-.1.3-.2.1,0,.2-.2.3-.2,0,0,.2-.2.2-.3,0-.1.1-.2.2-.4s0-.2.1-.4c0-.1,0-.3,0-.4s0-.3,0-.4c0-.1,0-.3-.1-.4s-.1-.2-.2-.3c0-.1-.2-.2-.2-.3,0,0-.2-.2-.3-.2-.1,0-.2-.1-.3-.2-.1,0-.2,0-.4-.1-.3,0-.5,0-.8,0-.1,0-.2,0-.4.1-.1,0-.2.1-.4.2-.1,0-.2.2-.3.2,0,0-.2.2-.2.3,0,.1-.1.2-.2.3,0,.1,0,.2-.1.4,0,.1,0,.3,0,.4s0,.3,0,.4c0,.1,0,.2.1.4Z"/>
          <path class="cls-4" d="M312.2,243.1l-4.5-7.7c-1.7-3-5-4.9-8.4-4.9h-1.1c.2-.3.4-.6.6-.9,1.8-3,1.8-6.7,0-9.7l-4.5-7.7c-1.7-3-5-4.9-8.4-4.9h-1.1c.2-.3.4-.6.6-.9,1.8-3,1.8-6.7,0-9.7l-4.5-7.7c-1.7-3-5-4.9-8.4-4.9h-1.1c.2-.3.4-.6.6-.9,1.8-3,1.8-6.7,0-9.7-1.8-3-4.9-4.9-8.4-4.9s-.6,0-.9,0l1.6-2.7c1.8-3,1.8-6.7,0-9.7s-4.9-4.9-8.4-4.9h-80.3c-3.1,0-5.9,1.4-7.7,3.8-1.8-2.4-4.6-3.8-7.7-3.8h-80.3c-3.1,0-5.9,1.4-7.7,3.8-1.8-2.4-4.6-3.8-7.7-3.8H-16.1c-3.5,0-6.7,1.8-8.4,4.9-1.8,3-1.8,6.7,0,9.7l4.5,7.7c1.7,3,5,4.9,8.4,4.9h1.1c-.2.3-.4.6-.6.9-1.8,3-1.8,6.7,0,9.7l4.5,7.7c1.7,3,5,4.9,8.4,4.9h1.1c-.2.3-.4.6-.6.9-1.8,3-1.8,6.7,0,9.7l4.5,7.7c1.7,3,5,4.9,8.4,4.9h1.1c-.2.3-.4.6-.6.9-1.8,3-1.8,6.7,0,9.7,1.8,3,4.9,4.9,8.4,4.9s.6,0,.9,0l-1.6,2.7c-1.8,3-1.8,6.7,0,9.7,1.8,3,4.9,4.9,8.4,4.9h80.3c3.1,0,5.9-1.4,7.7-3.8,1.8,2.4,4.6,3.8,7.7,3.8h80.3c3.1,0,5.9-1.4,7.7-3.8,1.8,2.4,4.6,3.8,7.7,3.8h80.3c3.5,0,6.7-1.8,8.4-4.9,1.8-3,1.8-6.7,0-9.7ZM290.9,214.2l4.5,7.7c1,1.8,1,3.9,0,5.7-1,1.8-2.9,2.9-5,2.9h-53.6c-2.1,0-3.9-1.1-5-2.9-1-1.8-1-3.9,0-5.7l.3-.5c.3-.4.6-.8.9-1.3l4-6.9c1.1-1.2,2.6-1.9,4.3-1.9h44.6c2,0,3.9,1.1,5,2.9ZM215.7,241.9l-.9-1.5c.3,0,.6,0,.9,0,.3,0,.6,0,.9,0l-.9,1.5ZM119.9,241.9l-.9-1.5c.3,0,.6,0,.9,0s.6,0,.9,0l-.9,1.5ZM32.5,225.9c-.2-.3-.4-.6-.6-.9h1.1c.8,0,1.7-.1,2.5-.3,0,1.7.4,3.4,1.3,5,.2.3.4.6.6.9h-1.1c-.8,0-1.7.1-2.5.3,0-1.7-.4-3.4-1.3-5ZM40.2,227.6c-1-1.8-1-3.9,0-5.7l.3-.5c.3-.4.6-.8.9-1.3l4-6.9c1.1-1.2,2.6-1.9,4.3-1.9h44.6c1.6,0,3.2.7,4.3,1.9l4,6.9c.3.5.6.9.9,1.3l.3.5c1,1.8,1,3.9,0,5.7-1,1.8-2.9,2.9-5,2.9h-53.6c-2.1,0-3.9-1.1-5-2.9ZM45.9,202.7c-.2-.3-.4-.6-.6-.9h1.1c.8,0,1.7-.1,2.5-.3,0,1.7.4,3.4,1.3,5,.2.3.4.6.6.9h-1.1c-.8,0-1.7.1-2.5.3,0-1.7-.4-3.4-1.3-5ZM59.2,179.5c-.2-.3-.4-.6-.6-.9h1.1c.8,0,1.7-.1,2.5-.3,0,1.7.4,3.4,1.3,5,.2.3.4.6.6.9h-1.1c-.8,0-1.7.1-2.5.3,0-1.7-.4-3.4-1.3-5ZM71.9,167.2l.9,1.5c-.3,0-.6,0-.9,0s-.6,0-.9,0l.9-1.5ZM167.8,167.2l.9,1.5c-.3,0-.6,0-.9,0s-.6,0-.9,0l.9-1.5ZM255.2,183.3c.2.3.4.6.6.9h-1.1c-.8,0-1.7.1-2.5.3,0-1.7-.4-3.4-1.3-5-.2-.3-.4-.6-.6-.9h1.1c.8,0,1.7-.1,2.5-.3,0,1.7.4,3.4,1.3,5ZM247.4,181.5c1,1.8,1,3.9,0,5.7l-.3.5c-.3.4-.6.8-.9,1.3l-4,6.9c-1.1,1.2-2.6,1.9-4.3,1.9h-44.6c-1.6,0-3.2-.7-4.3-1.9l-4-6.9c-.3-.5-.6-.9-.9-1.3l-.3-.5c-1-1.8-1-3.9,0-5.7s2.9-2.9,5-2.9h53.6c2.1,0,3.9,1.1,5,2.9ZM241.8,206.4c.2.3.4.6.6.9h-1.1c-.8,0-1.7.1-2.5.3,0-1.7-.4-3.4-1.3-5-.2-.3-.4-.6-.6-.9h1.1c.8,0,1.7-.1,2.5-.3,0,1.7.4,3.4,1.3,5ZM232.9,212.2l-4,6.9c-1.1,1.2-2.6,1.9-4.3,1.9h-17.9c-1.6,0-3.2-.7-4.3-1.9l-4-6.9c-.3-.4-.6-.9-.9-1.3l-.3-.5c-1-1.8-1-3.9,0-5.7,1-1.8,2.9-2.9,5-2.9h26.8c2.1,0,3.9,1.1,5,2.9,1,1.8,1,3.9,0,5.7l-.3.5c-.3.4-.6.8-.9,1.3ZM220.7,227.9c1,1.8,1,3.9,0,5.7-1,1.8-2.9,2.9-5,2.9-2.1,0-3.9-1.1-5-2.9s-1-3.9,0-5.7,2.9-2.9,5-2.9,3.9,1.1,5,2.9ZM137,212.2l-4,6.9c-1.1,1.2-2.6,1.9-4.3,1.9h-17.9c-1.6,0-3.2-.7-4.3-1.9l-4-6.9c-.3-.5-.6-.9-.9-1.3l-.3-.5c-1-1.8-1-3.9,0-5.7,1-1.8,2.9-2.9,5-2.9h26.8c2.1,0,3.9,1.1,5,2.9,1,1.8,1,3.9,0,5.7l-.3.5c-.3.4-.6.8-.9,1.3ZM124.8,227.9c1,1.8,1,3.9,0,5.7-1,1.8-2.9,2.9-5,2.9s-3.9-1.1-5-2.9c-1-1.8-1-3.9,0-5.7,1-1.8,2.9-2.9,5-2.9s3.9,1.1,5,2.9ZM95.1,201.5c.8.2,1.6.3,2.5.3h1.1c-.2.3-.4.6-.6.9-.9,1.6-1.3,3.3-1.3,5-.8-.2-1.6-.3-2.5-.3h-1.1c.2-.3.4-.6.6-.9.9-1.6,1.3-3.3,1.3-5ZM141.7,202.7c-.2-.3-.4-.6-.6-.9h1.1c.8,0,1.7-.1,2.5-.3,0,1.7.4,3.4,1.3,5,.2.3.4.6.6.9h-1.1c-.8,0-1.7.1-2.5.3,0-1.7-.4-3.4-1.3-5ZM149.4,204.4c-1-1.8-1-3.9,0-5.7l.3-.5c.3-.4.6-.8.9-1.3l4-6.9c1.1-1.2,2.6-1.9,4.3-1.9h17.9c1.6,0,3.2.7,4.3,1.9l4,6.9c.3.4.6.9.9,1.3l.3.5c1,1.8,1,3.9,0,5.7-1,1.8-2.9,2.9-5,2.9h-26.8c-2.1,0-3.9-1.1-5-2.9ZM162.8,181.3c-1-1.8-1-3.9,0-5.7,1-1.8,2.9-2.9,5-2.9s3.9,1.1,5,2.9c1,1.8,1,3.9,0,5.7-1,1.8-2.9,2.9-5,2.9s-3.9-1.1-5-2.9ZM189.6,206.4c.9-1.6,1.3-3.3,1.3-5,.8.2,1.6.3,2.5.3h1.1c-.2.3-.4.6-.6.9-.9,1.6-1.3,3.3-1.3,5-.8-.2-1.6-.3-2.5-.3h-1.1c.2-.3.4-.6.6-.9ZM180.5,179.5c-.9,1.6-1.3,3.3-1.3,5-.8-.2-1.6-.3-2.5-.3h-1.1c.2-.3.4-.6.6-.9.9-1.6,1.3-3.3,1.3-5,.8.2,1.6.3,2.5.3h1.1c-.2.3-.4.6-.6.9ZM159.3,183.3c.2.3.4.6.6.9h-1.1c-.8,0-1.7.1-2.5.3,0-1.7-.4-3.4-1.3-5-.2-.3-.4-.6-.6-.9h1.1c.8,0,1.7-.1,2.5-.3,0,1.7.4,3.4,1.3,5ZM151.6,181.5c1,1.8,1,3.9,0,5.7l-.3.5c-.3.4-.6.8-.9,1.3l-4,6.9c-1.1,1.2-2.6,1.9-4.3,1.9h-44.6c-1.6,0-3.2-.7-4.3-1.9l-4-6.9c-.3-.5-.6-.9-.9-1.3l-.3-.5c-1-1.8-1-3.9,0-5.7,1-1.8,2.9-2.9,5-2.9h53.6c2.1,0,3.9,1.1,5,2.9ZM84.7,179.5c-.9,1.6-1.3,3.3-1.3,5-.8-.2-1.6-.3-2.5-.3h-1.1c.2-.3.4-.6.6-.9.9-1.6,1.3-3.3,1.3-5,.8.2,1.6.3,2.5.3h1.1c-.2.3-.4.6-.6.9ZM67,181.3c-1-1.8-1-3.9,0-5.7,1-1.8,2.9-2.9,5-2.9s3.9,1.1,5,2.9c1,1.8,1,3.9,0,5.7-1,1.8-2.9,2.9-5,2.9s-3.9-1.1-5-2.9ZM54.8,196.9l4-6.9c1.1-1.2,2.6-1.9,4.3-1.9h17.9c1.6,0,3.2.7,4.3,1.9l4,6.9c.3.5.6.9.9,1.3l.3.5c1,1.8,1,3.9,0,5.7-1,1.8-2.9,2.9-5,2.9h-26.8c-2.1,0-3.9-1.1-5-2.9-1-1.8-1-3.9,0-5.7l.3-.5c.3-.4.6-.8.9-1.3ZM107.2,229.6c.9-1.6,1.3-3.3,1.3-5,.8.2,1.6.3,2.5.3h1.1c-.2.3-.4.6-.6.9-.9,1.6-1.3,3.3-1.3,5-.8-.2-1.6-.3-2.5-.3h-1.1c.2-.3.4-.6.6-.9ZM128.3,225.9c-.2-.3-.4-.6-.6-.9h1.1c.8,0,1.7-.1,2.5-.3,0,1.7.4,3.4,1.3,5,.2.3.4.6.6.9h-1.1c-.8,0-1.7.1-2.5.3,0-1.7-.4-3.4-1.3-5ZM136,227.6c-1-1.8-1-3.9,0-5.7l.3-.5c.3-.4.6-.8.9-1.3l4-6.9c1.1-1.2,2.6-1.9,4.3-1.9h44.6c1.6,0,3.2.7,4.3,1.9l4,6.9c.3.5.6.9.9,1.3l.3.5c1,1.8,1,3.9,0,5.7-1,1.8-2.9,2.9-5,2.9h-53.6c-2.1,0-3.9-1.1-5-2.9ZM203,229.6c.9-1.6,1.3-3.3,1.3-5,.8.2,1.6.3,2.5.3h1.1c-.2.3-.4.6-.6.9-.9,1.6-1.3,3.3-1.3,5-.8-.2-1.6-.3-2.5-.3h-1.1c.2-.3.4-.6.6-.9ZM224.1,225.9c-.2-.3-.4-.6-.6-.9h1.1c.8,0,1.7-.1,2.5-.3,0,1.7.4,3.4,1.3,5,.2.3.4.6.6.9h-1.1c-.8,0-1.7.1-2.5.3,0-1.7-.4-3.4-1.3-5ZM277.5,191l4.5,7.7c1,1.8,1,3.9,0,5.7-1,1.8-2.9,2.9-5,2.9h-26.8c-2.1,0-3.9-1.1-5-2.9-1-1.8-1-3.9,0-5.7l.3-.5c.3-.4.6-.8.9-1.3l4-6.9c1.1-1.2,2.6-1.9,4.3-1.9h17.9c2,0,3.9,1.1,5,2.9ZM268.6,175.5c1,1.8,1,3.9,0,5.7-1,1.8-2.9,2.9-5,2.9s-3.9-1.1-5-2.9c-1-1.8-1-3.9,0-5.7,1-1.8,2.9-2.9,5-2.9s3.9,1.1,5,2.9ZM175.5,155.4h80.3c2.1,0,3.9,1.1,5,2.9,1,1.8,1,3.9,0,5.7l-4.5,7.7c-1,1.8-2.9,2.9-5,2.9h-71.4c-2,0-3.9-1.1-5-2.9l-4.5-7.7c-.5-.9-.8-1.9-.8-2.9h0c0-1,.3-2,.8-2.9,1-1.8,2.9-2.9,5-2.9ZM79.7,155.4h80.3c2.1,0,3.9,1.1,5,2.9.5.9.8,1.9.8,2.9h0c0,1-.3,2-.8,2.9l-4.5,7.7c-1,1.8-2.9,2.9-5,2.9h-71.4c-2,0-3.9-1.1-5-2.9l-4.5-7.7c-.5-.9-.8-1.9-.8-2.9h0c0-1,.3-2,.8-2.9,1-1.8,2.9-2.9,5-2.9ZM-16.6,171.7l-4.5-7.7c-1-1.8-1-3.9,0-5.7,1-1.8,2.9-2.9,5-2.9h80.3c2.1,0,3.9,1.1,5,2.9.5.9.8,1.9.8,2.9h0c0,1-.3,2-.8,2.9l-4.5,7.7c-1,1.8-2.9,2.9-5,2.9H-11.7c-2,0-3.9-1.1-5-2.9ZM-3.2,194.9l-4.5-7.7c-1-1.8-1-3.9,0-5.7,1-1.8,2.9-2.9,5-2.9h53.6c2.1,0,3.9,1.1,5,2.9,1,1.8,1,3.9,0,5.7l-.3.5c-.3.4-.6.8-.9,1.3l-4,6.9c-1.1,1.2-2.6,1.9-4.3,1.9H1.7c-2,0-3.9-1.1-5-2.9ZM10.1,218.1l-4.5-7.7c-1-1.8-1-3.9,0-5.7,1-1.8,2.9-2.9,5-2.9h26.8c2.1,0,3.9,1.1,5,2.9,1,1.8,1,3.9,0,5.7l-.3.5c-.3.4-.6.8-.9,1.3l-4,6.9c-1.1,1.2-2.6,1.9-4.3,1.9H15.1c-2,0-3.9-1.1-5-2.9ZM19.1,233.6c-1-1.8-1-3.9,0-5.7,1-1.8,2.9-2.9,5-2.9s3.9,1.1,5,2.9c1,1.8,1,3.9,0,5.7-1,1.8-2.9,2.9-5,2.9s-3.9-1.1-5-2.9ZM112.1,253.7H31.8c-2.1,0-3.9-1.1-5-2.9-1-1.8-1-3.9,0-5.7l4.5-7.7c1-1.8,2.9-2.9,5-2.9h71.4c2,0,3.9,1.1,5,2.9l4.5,7.7c.5.9.8,1.9.8,2.9,0,0,0,0,0,0,0,1-.3,2-.8,2.9-1,1.8-2.9,2.9-5,2.9ZM207.9,253.7h-80.3c-2.1,0-3.9-1.1-5-2.9-.5-.9-.8-1.9-.8-2.9,0,0,0,0,0,0,0-1,.3-2,.8-2.9l4.5-7.7c1-1.8,2.9-2.9,5-2.9h71.4c2,0,3.9,1.1,5,2.9l4.5,7.7c.5.9.8,1.9.8,2.9h0c0,1-.3,2-.8,2.9-1,1.8-2.9,2.9-5,2.9ZM308.7,250.8c-1,1.8-2.9,2.9-5,2.9h-80.3c-2.1,0-3.9-1.1-5-2.9-.5-.9-.8-1.9-.8-2.9h0c0-1,.3-2,.8-2.9l4.5-7.7c1-1.8,2.9-2.9,5-2.9h71.4c2,0,3.9,1.1,5,2.9l4.5,7.7c1,1.8,1,3.9,0,5.7Z"/>
          <path class="cls-4" d="M258.3,197.7c0,1.1.9,2,2,2h6.6c1.1,0,2-.9,2-2s-.9-2-2-2h-6.6c-1.1,0-2,.9-2,2Z"/>
        </g>
        <path class="cls-4" d="M24.6,243.1l-4.5-7.7c-1.7-3-5-4.9-8.4-4.9h-1.1c.2-.3.4-.6.6-.9,1.8-3,1.8-6.7,0-9.7l-4.5-7.7c-1.7-3-5-4.9-8.4-4.9h-1.1c.2-.3.4-.6.6-.9,1.8-3,1.8-6.7,0-9.7l-4.5-7.7c-1.7-3-5-4.9-8.4-4.9h-1.1c.2-.3.4-.6.6-.9,1.8-3,1.8-6.7,0-9.7-1.8-3-4.9-4.9-8.4-4.9s-.6,0-.9,0l1.6-2.7c1.8-3,1.8-6.7,0-9.7s-4.9-4.9-8.4-4.9h-80.3c-3.1,0-5.9,1.4-7.7,3.8-1.8-2.4-4.6-3.8-7.7-3.8h-80.3c-3.1,0-5.9,1.4-7.7,3.8-1.8-2.4-4.6-3.8-7.7-3.8h-80.3c-3.5,0-6.7,1.8-8.4,4.9-1.8,3-1.8,6.7,0,9.7l4.5,7.7c1.7,3,5,4.9,8.4,4.9h1.1c-.2.3-.4.6-.6.9-1.8,3-1.8,6.7,0,9.7l4.5,7.7c1.7,3,5,4.9,8.4,4.9h1.1c-.2.3-.4.6-.6.9-1.8,3-1.8,6.7,0,9.7l4.5,7.7c1.7,3,5,4.9,8.4,4.9h1.1c-.2.3-.4.6-.6.9-1.8,3-1.8,6.7,0,9.7,1.8,3,4.9,4.9,8.4,4.9s.6,0,.9,0l-1.6,2.7c-1.8,3-1.8,6.7,0,9.7,1.8,3,4.9,4.9,8.4,4.9h80.3c3.1,0,5.9-1.4,7.7-3.8,1.8,2.4,4.6,3.8,7.7,3.8h80.3c3.1,0,5.9-1.4,7.7-3.8,1.8,2.4,4.6,3.8,7.7,3.8H16.1c3.5,0,6.7-1.8,8.4-4.9,1.8-3,1.8-6.7,0-9.7ZM3.2,214.2l4.5,7.7c1,1.8,1,3.9,0,5.7-1,1.8-2.9,2.9-5,2.9h-53.6c-2.1,0-3.9-1.1-5-2.9-1-1.8-1-3.9,0-5.7l.3-.5c.3-.4.6-.8.9-1.3l4-6.9c1.1-1.2,2.6-1.9,4.3-1.9H-1.7c2,0,3.9,1.1,5,2.9ZM-72,241.9l-.9-1.5c.3,0,.6,0,.9,0,.3,0,.6,0,.9,0l-.9,1.5ZM-167.8,241.9l-.9-1.5c.3,0,.6,0,.9,0s.6,0,.9,0l-.9,1.5ZM-255.2,225.9c-.2-.3-.4-.6-.6-.9h1.1c.8,0,1.7-.1,2.5-.3,0,1.7.4,3.4,1.3,5,.2.3.4.6.6.9h-1.1c-.8,0-1.7.1-2.5.3,0-1.7-.4-3.4-1.3-5ZM-247.4,227.6c-1-1.8-1-3.9,0-5.7l.3-.5c.3-.4.6-.8.9-1.3l4-6.9c1.1-1.2,2.6-1.9,4.3-1.9h44.6c1.6,0,3.2.7,4.3,1.9l4,6.9c.3.5.6.9.9,1.3l.3.5c1,1.8,1,3.9,0,5.7-1,1.8-2.9,2.9-5,2.9h-53.6c-2.1,0-3.9-1.1-5-2.9ZM-241.8,202.7c-.2-.3-.4-.6-.6-.9h1.1c.8,0,1.7-.1,2.5-.3,0,1.7.4,3.4,1.3,5,.2.3.4.6.6.9h-1.1c-.8,0-1.7.1-2.5.3,0-1.7-.4-3.4-1.3-5ZM-228.4,179.5c-.2-.3-.4-.6-.6-.9h1.1c.8,0,1.7-.1,2.5-.3,0,1.7.4,3.4,1.3,5,.2.3.4.6.6.9h-1.1c-.8,0-1.7.1-2.5.3,0-1.7-.4-3.4-1.3-5ZM-215.7,167.2l.9,1.5c-.3,0-.6,0-.9,0s-.6,0-.9,0l.9-1.5ZM-119.9,167.2l.9,1.5c-.3,0-.6,0-.9,0s-.6,0-.9,0l.9-1.5ZM-32.5,183.3c.2.3.4.6.6.9h-1.1c-.8,0-1.7.1-2.5.3,0-1.7-.4-3.4-1.3-5-.2-.3-.4-.6-.6-.9h1.1c.8,0,1.7-.1,2.5-.3,0,1.7.4,3.4,1.3,5ZM-40.2,181.5c1,1.8,1,3.9,0,5.7l-.3.5c-.3.4-.6.8-.9,1.3l-4,6.9c-1.1,1.2-2.6,1.9-4.3,1.9h-44.6c-1.6,0-3.2-.7-4.3-1.9l-4-6.9c-.3-.5-.6-.9-.9-1.3l-.3-.5c-1-1.8-1-3.9,0-5.7s2.9-2.9,5-2.9h53.6c2.1,0,3.9,1.1,5,2.9ZM-45.9,206.4c.2.3.4.6.6.9h-1.1c-.8,0-1.7.1-2.5.3,0-1.7-.4-3.4-1.3-5-.2-.3-.4-.6-.6-.9h1.1c.8,0,1.7-.1,2.5-.3,0,1.7.4,3.4,1.3,5ZM-54.8,212.2l-4,6.9c-1.1,1.2-2.6,1.9-4.3,1.9h-17.9c-1.6,0-3.2-.7-4.3-1.9l-4-6.9c-.3-.4-.6-.9-.9-1.3l-.3-.5c-1-1.8-1-3.9,0-5.7,1-1.8,2.9-2.9,5-2.9h26.8c2.1,0,3.9,1.1,5,2.9,1,1.8,1,3.9,0,5.7l-.3.5c-.3.4-.6.8-.9,1.3ZM-67,227.9c1,1.8,1,3.9,0,5.7-1,1.8-2.9,2.9-5,2.9-2.1,0-3.9-1.1-5-2.9s-1-3.9,0-5.7,2.9-2.9,5-2.9,3.9,1.1,5,2.9ZM-150.6,212.2l-4,6.9c-1.1,1.2-2.6,1.9-4.3,1.9h-17.9c-1.6,0-3.2-.7-4.3-1.9l-4-6.9c-.3-.5-.6-.9-.9-1.3l-.3-.5c-1-1.8-1-3.9,0-5.7,1-1.8,2.9-2.9,5-2.9h26.8c2.1,0,3.9,1.1,5,2.9,1,1.8,1,3.9,0,5.7l-.3.5c-.3.4-.6.8-.9,1.3ZM-162.8,227.9c1,1.8,1,3.9,0,5.7-1,1.8-2.9,2.9-5,2.9s-3.9-1.1-5-2.9c-1-1.8-1-3.9,0-5.7,1-1.8,2.9-2.9,5-2.9s3.9,1.1,5,2.9ZM-192.6,201.5c.8.2,1.6.3,2.5.3h1.1c-.2.3-.4.6-.6.9-.9,1.6-1.3,3.3-1.3,5-.8-.2-1.6-.3-2.5-.3h-1.1c.2-.3.4-.6.6-.9.9-1.6,1.3-3.3,1.3-5ZM-146,202.7c-.2-.3-.4-.6-.6-.9h1.1c.8,0,1.7-.1,2.5-.3,0,1.7.4,3.4,1.3,5,.2.3.4.6.6.9h-1.1c-.8,0-1.7.1-2.5.3,0-1.7-.4-3.4-1.3-5ZM-138.2,204.4c-1-1.8-1-3.9,0-5.7l.3-.5c.3-.4.6-.8.9-1.3l4-6.9c1.1-1.2,2.6-1.9,4.3-1.9h17.9c1.6,0,3.2.7,4.3,1.9l4,6.9c.3.4.6.9.9,1.3l.3.5c1,1.8,1,3.9,0,5.7-1,1.8-2.9,2.9-5,2.9h-26.8c-2.1,0-3.9-1.1-5-2.9ZM-124.8,181.3c-1-1.8-1-3.9,0-5.7,1-1.8,2.9-2.9,5-2.9s3.9,1.1,5,2.9c1,1.8,1,3.9,0,5.7-1,1.8-2.9,2.9-5,2.9s-3.9-1.1-5-2.9ZM-98,206.4c.9-1.6,1.3-3.3,1.3-5,.8.2,1.6.3,2.5.3h1.1c-.2.3-.4.6-.6.9-.9,1.6-1.3,3.3-1.3,5-.8-.2-1.6-.3-2.5-.3h-1.1c.2-.3.4-.6.6-.9ZM-107.2,179.5c-.9,1.6-1.3,3.3-1.3,5-.8-.2-1.6-.3-2.5-.3h-1.1c.2-.3.4-.6.6-.9.9-1.6,1.3-3.3,1.3-5,.8.2,1.6.3,2.5.3h1.1c-.2.3-.4.6-.6.9ZM-128.3,183.3c.2.3.4.6.6.9h-1.1c-.8,0-1.7.1-2.5.3,0-1.7-.4-3.4-1.3-5-.2-.3-.4-.6-.6-.9h1.1c.8,0,1.7-.1,2.5-.3,0,1.7.4,3.4,1.3,5ZM-136,181.5c1,1.8,1,3.9,0,5.7l-.3.5c-.3.4-.6.8-.9,1.3l-4,6.9c-1.1,1.2-2.6,1.9-4.3,1.9h-44.6c-1.6,0-3.2-.7-4.3-1.9l-4-6.9c-.3-.5-.6-.9-.9-1.3l-.3-.5c-1-1.8-1-3.9,0-5.7,1-1.8,2.9-2.9,5-2.9h53.6c2.1,0,3.9,1.1,5,2.9ZM-203,179.5c-.9,1.6-1.3,3.3-1.3,5-.8-.2-1.6-.3-2.5-.3h-1.1c.2-.3.4-.6.6-.9.9-1.6,1.3-3.3,1.3-5,.8.2,1.6.3,2.5.3h1.1c-.2.3-.4.6-.6.9ZM-220.7,181.3c-1-1.8-1-3.9,0-5.7,1-1.8,2.9-2.9,5-2.9s3.9,1.1,5,2.9c1,1.8,1,3.9,0,5.7-1,1.8-2.9,2.9-5,2.9s-3.9-1.1-5-2.9ZM-232.9,196.9l4-6.9c1.1-1.2,2.6-1.9,4.3-1.9h17.9c1.6,0,3.2.7,4.3,1.9l4,6.9c.3.5.6.9.9,1.3l.3.5c1,1.8,1,3.9,0,5.7-1,1.8-2.9,2.9-5,2.9h-26.8c-2.1,0-3.9-1.1-5-2.9-1-1.8-1-3.9,0-5.7l.3-.5c.3-.4.6-.8.9-1.3ZM-180.5,229.6c.9-1.6,1.3-3.3,1.3-5,.8.2,1.6.3,2.5.3h1.1c-.2.3-.4.6-.6.9-.9,1.6-1.3,3.3-1.3,5-.8-.2-1.6-.3-2.5-.3h-1.1c.2-.3.4-.6.6-.9ZM-159.4,225.9c-.2-.3-.4-.6-.6-.9h1.1c.8,0,1.7-.1,2.5-.3,0,1.7.4,3.4,1.3,5,.2.3.4.6.6.9h-1.1c-.8,0-1.7.1-2.5.3,0-1.7-.4-3.4-1.3-5ZM-151.6,227.6c-1-1.8-1-3.9,0-5.7l.3-.5c.3-.4.6-.8.9-1.3l4-6.9c1.1-1.2,2.6-1.9,4.3-1.9h44.6c1.6,0,3.2.7,4.3,1.9l4,6.9c.3.5.6.9.9,1.3l.3.5c1,1.8,1,3.9,0,5.7-1,1.8-2.9,2.9-5,2.9h-53.6c-2.1,0-3.9-1.1-5-2.9ZM-84.7,229.6c.9-1.6,1.3-3.3,1.3-5,.8.2,1.6.3,2.5.3h1.1c-.2.3-.4.6-.6.9-.9,1.6-1.3,3.3-1.3,5-.8-.2-1.6-.3-2.5-.3h-1.1c.2-.3.4-.6.6-.9ZM-63.5,225.9c-.2-.3-.4-.6-.6-.9h1.1c.8,0,1.7-.1,2.5-.3,0,1.7.4,3.4,1.3,5,.2.3.4.6.6.9h-1.1c-.8,0-1.7.1-2.5.3,0-1.7-.4-3.4-1.3-5ZM-10.1,191l4.5,7.7c1,1.8,1,3.9,0,5.7-1,1.8-2.9,2.9-5,2.9h-26.8c-2.1,0-3.9-1.1-5-2.9-1-1.8-1-3.9,0-5.7l.3-.5c.3-.4.6-.8.9-1.3l4-6.9c1.1-1.2,2.6-1.9,4.3-1.9H-15.1c2,0,3.9,1.1,5,2.9ZM-19.1,175.5c1,1.8,1,3.9,0,5.7-1,1.8-2.9,2.9-5,2.9s-3.9-1.1-5-2.9c-1-1.8-1-3.9,0-5.7,1-1.8,2.9-2.9,5-2.9s3.9,1.1,5,2.9ZM-112.1,155.4H-31.8c2.1,0,3.9,1.1,5,2.9,1,1.8,1,3.9,0,5.7l-4.5,7.7c-1,1.8-2.9,2.9-5,2.9h-71.4c-2,0-3.9-1.1-5-2.9l-4.5-7.7c-.5-.9-.8-1.9-.8-2.9h0c0-1,.3-2,.8-2.9,1-1.8,2.9-2.9,5-2.9ZM-208,155.4h80.3c2.1,0,3.9,1.1,5,2.9.5.9.8,1.9.8,2.9h0c0,1-.3,2-.8,2.9l-4.5,7.7c-1,1.8-2.9,2.9-5,2.9h-71.4c-2,0-3.9-1.1-5-2.9l-4.5-7.7c-.5-.9-.8-1.9-.8-2.9h0c0-1,.3-2,.8-2.9,1-1.8,2.9-2.9,5-2.9ZM-304.3,171.7l-4.5-7.7c-1-1.8-1-3.9,0-5.7,1-1.8,2.9-2.9,5-2.9h80.3c2.1,0,3.9,1.1,5,2.9.5.9.8,1.9.8,2.9h0c0,1-.3,2-.8,2.9l-4.5,7.7c-1,1.8-2.9,2.9-5,2.9h-71.4c-2,0-3.9-1.1-5-2.9ZM-290.9,194.9l-4.5-7.7c-1-1.8-1-3.9,0-5.7,1-1.8,2.9-2.9,5-2.9h53.6c2.1,0,3.9,1.1,5,2.9,1,1.8,1,3.9,0,5.7l-.3.5c-.3.4-.6.8-.9,1.3l-4,6.9c-1.1,1.2-2.6,1.9-4.3,1.9h-44.6c-2,0-3.9-1.1-5-2.9ZM-277.5,218.1l-4.5-7.7c-1-1.8-1-3.9,0-5.7,1-1.8,2.9-2.9,5-2.9h26.8c2.1,0,3.9,1.1,5,2.9,1,1.8,1,3.9,0,5.7l-.3.5c-.3.4-.6.8-.9,1.3l-4,6.9c-1.1,1.2-2.6,1.9-4.3,1.9h-17.9c-2,0-3.9-1.1-5-2.9ZM-268.6,233.6c-1-1.8-1-3.9,0-5.7,1-1.8,2.9-2.9,5-2.9s3.9,1.1,5,2.9c1,1.8,1,3.9,0,5.7-1,1.8-2.9,2.9-5,2.9s-3.9-1.1-5-2.9ZM-175.5,253.7h-80.3c-2.1,0-3.9-1.1-5-2.9-1-1.8-1-3.9,0-5.7l4.5-7.7c1-1.8,2.9-2.9,5-2.9h71.4c2,0,3.9,1.1,5,2.9l4.5,7.7c.5.9.8,1.9.8,2.9,0,0,0,0,0,0,0,1-.3,2-.8,2.9-1,1.8-2.9,2.9-5,2.9ZM-79.7,253.7h-80.3c-2.1,0-3.9-1.1-5-2.9-.5-.9-.8-1.9-.8-2.9,0,0,0,0,0,0,0-1,.3-2,.8-2.9l4.5-7.7c1-1.8,2.9-2.9,5-2.9h71.4c2,0,3.9,1.1,5,2.9l4.5,7.7c.5.9.8,1.9.8,2.9h0c0,1-.3,2-.8,2.9-1,1.8-2.9,2.9-5,2.9ZM21.1,250.8c-1,1.8-2.9,2.9-5,2.9h-80.3c-2.1,0-3.9-1.1-5-2.9-.5-.9-.8-1.9-.8-2.9h0c0-1,.3-2,.8-2.9l4.5-7.7c1-1.8,2.9-2.9,5-2.9H11.7c2,0,3.9,1.1,5,2.9l4.5,7.7c1,1.8,1,3.9,0,5.7Z"/>
        <path class="cls-4" d="M599.8,140.8l-4.5-7.7c-1.7-3-5-4.9-8.4-4.9h-1.1c.2-.3.4-.6.6-.9,1.8-3,1.8-6.7,0-9.7l-4.5-7.7c-1.7-3-5-4.9-8.4-4.9h-1.1c.2-.3.4-.6.6-.9,1.8-3,1.8-6.7,0-9.7l-4.5-7.7c-1.7-3-5-4.9-8.4-4.9h-1.1c.2-.3.4-.6.6-.9,1.8-3,1.8-6.7,0-9.7-1.8-3-4.9-4.9-8.4-4.9s-.6,0-.9,0l1.6-2.7c1.8-3,1.8-6.7,0-9.7s-4.9-4.9-8.4-4.9h-80.3c-3.1,0-5.9,1.4-7.7,3.8-1.8-2.4-4.6-3.8-7.7-3.8h-80.3c-3.1,0-5.9,1.4-7.7,3.8-1.8-2.4-4.6-3.8-7.7-3.8h-80.3c-3.5,0-6.7,1.8-8.4,4.9-1.8,3-1.8,6.7,0,9.7l4.5,7.7c1.7,3,5,4.9,8.4,4.9h1.1c-.2.3-.4.6-.6.9-1.8,3-1.8,6.7,0,9.7l4.5,7.7c1.7,3,5,4.9,8.4,4.9h1.1c-.2.3-.4.6-.6.9-1.8,3-1.8,6.7,0,9.7l4.5,7.7c1.7,3,5,4.9,8.4,4.9h1.1c-.2.3-.4.6-.6.9-1.8,3-1.8,6.7,0,9.7,1.8,3,4.9,4.9,8.4,4.9s.6,0,.9,0l-1.6,2.7c-1.8,3-1.8,6.7,0,9.7,1.8,3,4.9,4.9,8.4,4.9h80.3c3.1,0,5.9-1.4,7.7-3.8,1.8,2.4,4.6,3.8,7.7,3.8h80.3c3.1,0,5.9-1.4,7.7-3.8,1.8,2.4,4.6,3.8,7.7,3.8h80.3c3.5,0,6.7-1.8,8.4-4.9,1.8-3,1.8-6.7,0-9.7ZM578.5,111.9l4.5,7.7c1,1.8,1,3.9,0,5.7-1,1.8-2.9,2.9-5,2.9h-53.6c-2.1,0-3.9-1.1-5-2.9-1-1.8-1-3.9,0-5.7l.3-.5c.3-.4.6-.8.9-1.3l4-6.9c1.1-1.2,2.6-1.9,4.3-1.9h44.6c2,0,3.9,1.1,5,2.9ZM503.3,139.6l-.9-1.5c.3,0,.6,0,.9,0,.3,0,.6,0,.9,0l-.9,1.5ZM407.5,139.6l-.9-1.5c.3,0,.6,0,.9,0s.6,0,.9,0l-.9,1.5ZM320.1,123.6c-.2-.3-.4-.6-.6-.9h1.1c.8,0,1.7-.1,2.5-.3,0,1.7.4,3.4,1.3,5,.2.3.4.6.6.9h-1.1c-.8,0-1.7.1-2.5.3,0-1.7-.4-3.4-1.3-5ZM327.8,125.4c-1-1.8-1-3.9,0-5.7l.3-.5c.3-.4.6-.8.9-1.3l4-6.9c1.1-1.2,2.6-1.9,4.3-1.9h44.6c1.6,0,3.2.7,4.3,1.9l4,6.9c.3.5.6.9.9,1.3l.3.5c1,1.8,1,3.9,0,5.7-1,1.8-2.9,2.9-5,2.9h-53.6c-2.1,0-3.9-1.1-5-2.9ZM333.5,100.4c-.2-.3-.4-.6-.6-.9h1.1c.8,0,1.7-.1,2.5-.3,0,1.7.4,3.4,1.3,5,.2.3.4.6.6.9h-1.1c-.8,0-1.7.1-2.5.3,0-1.7-.4-3.4-1.3-5ZM346.9,77.2c-.2-.3-.4-.6-.6-.9h1.1c.8,0,1.7-.1,2.5-.3,0,1.7.4,3.4,1.3,5,.2.3.4.6.6.9h-1.1c-.8,0-1.7.1-2.5.3,0-1.7-.4-3.4-1.3-5ZM359.6,64.9l.9,1.5c-.3,0-.6,0-.9,0s-.6,0-.9,0l.9-1.5ZM455.4,64.9l.9,1.5c-.3,0-.6,0-.9,0s-.6,0-.9,0l.9-1.5ZM542.8,81c.2.3.4.6.6.9h-1.1c-.8,0-1.7.1-2.5.3,0-1.7-.4-3.4-1.3-5-.2-.3-.4-.6-.6-.9h1.1c.8,0,1.7-.1,2.5-.3,0,1.7.4,3.4,1.3,5ZM535.1,79.2c1,1.8,1,3.9,0,5.7l-.3.5c-.3.4-.6.8-.9,1.3l-4,6.9c-1.1,1.2-2.6,1.9-4.3,1.9h-44.6c-1.6,0-3.2-.7-4.3-1.9l-4-6.9c-.3-.5-.6-.9-.9-1.3l-.3-.5c-1-1.8-1-3.9,0-5.7s2.9-2.9,5-2.9h53.6c2.1,0,3.9,1.1,5,2.9ZM529.4,104.2c.2.3.4.6.6.9h-1.1c-.8,0-1.7.1-2.5.3,0-1.7-.4-3.4-1.3-5-.2-.3-.4-.6-.6-.9h1.1c.8,0,1.7-.1,2.5-.3,0,1.7.4,3.4,1.3,5ZM520.5,109.9l-4,6.9c-1.1,1.2-2.6,1.9-4.3,1.9h-17.9c-1.6,0-3.2-.7-4.3-1.9l-4-6.9c-.3-.4-.6-.9-.9-1.3l-.3-.5c-1-1.8-1-3.9,0-5.7,1-1.8,2.9-2.9,5-2.9h26.8c2.1,0,3.9,1.1,5,2.9,1,1.8,1,3.9,0,5.7l-.3.5c-.3.4-.6.8-.9,1.3ZM508.3,125.6c1,1.8,1,3.9,0,5.7-1,1.8-2.9,2.9-5,2.9-2.1,0-3.9-1.1-5-2.9s-1-3.9,0-5.7,2.9-2.9,5-2.9,3.9,1.1,5,2.9ZM424.7,109.9l-4,6.9c-1.1,1.2-2.6,1.9-4.3,1.9h-17.9c-1.6,0-3.2-.7-4.3-1.9l-4-6.9c-.3-.5-.6-.9-.9-1.3l-.3-.5c-1-1.8-1-3.9,0-5.7,1-1.8,2.9-2.9,5-2.9h26.8c2.1,0,3.9,1.1,5,2.9,1,1.8,1,3.9,0,5.7l-.3.5c-.3.4-.6.8-.9,1.3ZM412.5,125.6c1,1.8,1,3.9,0,5.7-1,1.8-2.9,2.9-5,2.9s-3.9-1.1-5-2.9c-1-1.8-1-3.9,0-5.7,1-1.8,2.9-2.9,5-2.9s3.9,1.1,5,2.9ZM382.7,99.2c.8.2,1.6.3,2.5.3h1.1c-.2.3-.4.6-.6.9-.9,1.6-1.3,3.3-1.3,5-.8-.2-1.6-.3-2.5-.3h-1.1c.2-.3.4-.6.6-.9.9-1.6,1.3-3.3,1.3-5ZM429.3,100.4c-.2-.3-.4-.6-.6-.9h1.1c.8,0,1.7-.1,2.5-.3,0,1.7.4,3.4,1.3,5,.2.3.4.6.6.9h-1.1c-.8,0-1.7.1-2.5.3,0-1.7-.4-3.4-1.3-5ZM437.1,102.2c-1-1.8-1-3.9,0-5.7l.3-.5c.3-.4.6-.8.9-1.3l4-6.9c1.1-1.2,2.6-1.9,4.3-1.9h17.9c1.6,0,3.2.7,4.3,1.9l4,6.9c.3.4.6.9.9,1.3l.3.5c1,1.8,1,3.9,0,5.7-1,1.8-2.9,2.9-5,2.9h-26.8c-2.1,0-3.9-1.1-5-2.9ZM450.5,79c-1-1.8-1-3.9,0-5.7,1-1.8,2.9-2.9,5-2.9s3.9,1.1,5,2.9c1,1.8,1,3.9,0,5.7-1,1.8-2.9,2.9-5,2.9s-3.9-1.1-5-2.9ZM477.2,104.2c.9-1.6,1.3-3.3,1.3-5,.8.2,1.6.3,2.5.3h1.1c-.2.3-.4.6-.6.9-.9,1.6-1.3,3.3-1.3,5-.8-.2-1.6-.3-2.5-.3h-1.1c.2-.3.4-.6.6-.9ZM468.1,77.2c-.9,1.6-1.3,3.3-1.3,5-.8-.2-1.6-.3-2.5-.3h-1.1c.2-.3.4-.6.6-.9.9-1.6,1.3-3.3,1.3-5,.8.2,1.6.3,2.5.3h1.1c-.2.3-.4.6-.6.9ZM447,81c.2.3.4.6.6.9h-1.1c-.8,0-1.7.1-2.5.3,0-1.7-.4-3.4-1.3-5-.2-.3-.4-.6-.6-.9h1.1c.8,0,1.7-.1,2.5-.3,0,1.7.4,3.4,1.3,5ZM439.2,79.2c1,1.8,1,3.9,0,5.7l-.3.5c-.3.4-.6.8-.9,1.3l-4,6.9c-1.1,1.2-2.6,1.9-4.3,1.9h-44.6c-1.6,0-3.2-.7-4.3-1.9l-4-6.9c-.3-.5-.6-.9-.9-1.3l-.3-.5c-1-1.8-1-3.9,0-5.7,1-1.8,2.9-2.9,5-2.9h53.6c2.1,0,3.9,1.1,5,2.9ZM372.3,77.2c-.9,1.6-1.3,3.3-1.3,5-.8-.2-1.6-.3-2.5-.3h-1.1c.2-.3.4-.6.6-.9.9-1.6,1.3-3.3,1.3-5,.8.2,1.6.3,2.5.3h1.1c-.2.3-.4.6-.6.9ZM354.6,79c-1-1.8-1-3.9,0-5.7,1-1.8,2.9-2.9,5-2.9s3.9,1.1,5,2.9c1,1.8,1,3.9,0,5.7-1,1.8-2.9,2.9-5,2.9s-3.9-1.1-5-2.9ZM342.4,94.7l4-6.9c1.1-1.2,2.6-1.9,4.3-1.9h17.9c1.6,0,3.2.7,4.3,1.9l4,6.9c.3.5.6.9.9,1.3l.3.5c1,1.8,1,3.9,0,5.7-1,1.8-2.9,2.9-5,2.9h-26.8c-2.1,0-3.9-1.1-5-2.9-1-1.8-1-3.9,0-5.7l.3-.5c.3-.4.6-.8.9-1.3ZM394.8,127.4c.9-1.6,1.3-3.3,1.3-5,.8.2,1.6.3,2.5.3h1.1c-.2.3-.4.6-.6.9-.9,1.6-1.3,3.3-1.3,5-.8-.2-1.6-.3-2.5-.3h-1.1c.2-.3.4-.6.6-.9ZM415.9,123.6c-.2-.3-.4-.6-.6-.9h1.1c.8,0,1.7-.1,2.5-.3,0,1.7.4,3.4,1.3,5,.2.3.4.6.6.9h-1.1c-.8,0-1.7.1-2.5.3,0-1.7-.4-3.4-1.3-5ZM423.7,125.4c-1-1.8-1-3.9,0-5.7l.3-.5c.3-.4.6-.8.9-1.3l4-6.9c1.1-1.2,2.6-1.9,4.3-1.9h44.6c1.6,0,3.2.7,4.3,1.9l4,6.9c.3.5.6.9.9,1.3l.3.5c1,1.8,1,3.9,0,5.7-1,1.8-2.9,2.9-5,2.9h-53.6c-2.1,0-3.9-1.1-5-2.9ZM490.6,127.4c.9-1.6,1.3-3.3,1.3-5,.8.2,1.6.3,2.5.3h1.1c-.2.3-.4.6-.6.9-.9,1.6-1.3,3.3-1.3,5-.8-.2-1.6-.3-2.5-.3h-1.1c.2-.3.4-.6.6-.9ZM511.8,123.6c-.2-.3-.4-.6-.6-.9h1.1c.8,0,1.7-.1,2.5-.3,0,1.7.4,3.4,1.3,5,.2.3.4.6.6.9h-1.1c-.8,0-1.7.1-2.5.3,0-1.7-.4-3.4-1.3-5ZM565.1,88.7l4.5,7.7c1,1.8,1,3.9,0,5.7-1,1.8-2.9,2.9-5,2.9h-26.8c-2.1,0-3.9-1.1-5-2.9-1-1.8-1-3.9,0-5.7l.3-.5c.3-.4.6-.8.9-1.3l4-6.9c1.1-1.2,2.6-1.9,4.3-1.9h17.9c2,0,3.9,1.1,5,2.9ZM556.2,73.2c1,1.8,1,3.9,0,5.7-1,1.8-2.9,2.9-5,2.9s-3.9-1.1-5-2.9c-1-1.8-1-3.9,0-5.7,1-1.8,2.9-2.9,5-2.9s3.9,1.1,5,2.9ZM463.2,53.1h80.3c2.1,0,3.9,1.1,5,2.9,1,1.8,1,3.9,0,5.7l-4.5,7.7c-1,1.8-2.9,2.9-5,2.9h-71.4c-2,0-3.9-1.1-5-2.9l-4.5-7.7c-.5-.9-.8-1.9-.8-2.9h0c0-1,.3-2,.8-2.9,1-1.8,2.9-2.9,5-2.9ZM367.3,53.1h80.3c2.1,0,3.9,1.1,5,2.9.5.9.8,1.9.8,2.9h0c0,1-.3,2-.8,2.9l-4.5,7.7c-1,1.8-2.9,2.9-5,2.9h-71.4c-2,0-3.9-1.1-5-2.9l-4.5-7.7c-.5-.9-.8-1.9-.8-2.9h0c0-1,.3-2,.8-2.9,1-1.8,2.9-2.9,5-2.9ZM271,69.5l-4.5-7.7c-1-1.8-1-3.9,0-5.7,1-1.8,2.9-2.9,5-2.9h80.3c2.1,0,3.9,1.1,5,2.9.5.9.8,1.9.8,2.9h0c0,1-.3,2-.8,2.9l-4.5,7.7c-1,1.8-2.9,2.9-5,2.9h-71.4c-2,0-3.9-1.1-5-2.9ZM284.4,92.7l-4.5-7.7c-1-1.8-1-3.9,0-5.7,1-1.8,2.9-2.9,5-2.9h53.6c2.1,0,3.9,1.1,5,2.9,1,1.8,1,3.9,0,5.7l-.3.5c-.3.4-.6.8-.9,1.3l-4,6.9c-1.1,1.2-2.6,1.9-4.3,1.9h-44.6c-2,0-3.9-1.1-5-2.9ZM297.8,115.9l-4.5-7.7c-1-1.8-1-3.9,0-5.7,1-1.8,2.9-2.9,5-2.9h26.8c2.1,0,3.9,1.1,5,2.9,1,1.8,1,3.9,0,5.7l-.3.5c-.3.4-.6.8-.9,1.3l-4,6.9c-1.1,1.2-2.6,1.9-4.3,1.9h-17.9c-2,0-3.9-1.1-5-2.9ZM306.7,131.3c-1-1.8-1-3.9,0-5.7,1-1.8,2.9-2.9,5-2.9s3.9,1.1,5,2.9c1,1.8,1,3.9,0,5.7-1,1.8-2.9,2.9-5,2.9s-3.9-1.1-5-2.9ZM399.8,151.4h-80.3c-2.1,0-3.9-1.1-5-2.9-1-1.8-1-3.9,0-5.7l4.5-7.7c1-1.8,2.9-2.9,5-2.9h71.4c2,0,3.9,1.1,5,2.9l4.5,7.7c.5.9.8,1.9.8,2.9,0,0,0,0,0,0,0,1-.3,2-.8,2.9-1,1.8-2.9,2.9-5,2.9ZM495.6,151.4h-80.3c-2.1,0-3.9-1.1-5-2.9-.5-.9-.8-1.9-.8-2.9,0,0,0,0,0,0,0-1,.3-2,.8-2.9l4.5-7.7c1-1.8,2.9-2.9,5-2.9h71.4c2,0,3.9,1.1,5,2.9l4.5,7.7c.5.9.8,1.9.8,2.9h0c0,1-.3,2-.8,2.9-1,1.8-2.9,2.9-5,2.9ZM596.4,148.6c-1,1.8-2.9,2.9-5,2.9h-80.3c-2.1,0-3.9-1.1-5-2.9-.5-.9-.8-1.9-.8-2.9h0c0-1,.3-2,.8-2.9l4.5-7.7c1-1.8,2.9-2.9,5-2.9h71.4c2,0,3.9,1.1,5,2.9l4.5,7.7c1,1.8,1,3.9,0,5.7Z"/>
        <g>
          <path class="cls-4" d="M68.6,97.4h6.6c1.1,0,2-.9,2-2s-.9-2-2-2h-6.6c-1.1,0-2,.9-2,2s.9,2,2,2Z"/>
          <path class="cls-4" d="M77.5,116.6h-11.1c-1.1,0-2,.9-2,2s.9,2,2,2h11.1c1.1,0,2-.9,2-2s-.9-2-2-2Z"/>
          <path class="cls-4" d="M90.8,139.8h-37.6c-1.1,0-2,.9-2,2s.9,2,2,2h37.6c1.1,0,2-.9,2-2s-.9-2-2-2Z"/>
          <path class="cls-4" d="M171.1,93.4h-6.6c-1.1,0-2,.9-2,2s.9,2,2,2h6.6c1.1,0,2-.9,2-2s-.9-2-2-2Z"/>
          <path class="cls-4" d="M173.3,116.6h-11.1c-1.1,0-2,.9-2,2s.9,2,2,2h11.1c1.1,0,2-.9,2-2s-.9-2-2-2Z"/>
          <path class="cls-4" d="M151.7,117c-.1,0-.2-.1-.3-.2s-.2,0-.4-.1c-.7-.1-1.3,0-1.8.5-.4.4-.6.9-.6,1.4s0,.5.2.8c0,.2.2.5.4.6,0,0,.2.2.3.3.1,0,.2.1.3.2.1,0,.2,0,.4.1.1,0,.3,0,.4,0,.5,0,1-.2,1.4-.6s.6-.9.6-1.4-.2-1-.6-1.4-.2-.2-.3-.2Z"/>
          <path class="cls-4" d="M186.6,139.8h-37.6c-1.1,0-2,.9-2,2s.9,2,2,2h37.6c1.1,0,2-.9,2-2s-.9-2-2-2Z"/>
          <path class="cls-4" d="M200.2,141.1c0-.1-.1-.2-.2-.4,0-.1-.2-.2-.2-.3-.5-.5-1.2-.7-1.8-.5-.1,0-.2,0-.4.1-.1,0-.2.1-.3.2s-.2.2-.3.2-.2.2-.2.3-.1.2-.2.4c0,.1,0,.2-.1.4,0,.1,0,.3,0,.4,0,.5.2,1,.6,1.4s.2.2.3.2c.1,0,.2.1.3.2.1,0,.2,0,.4.1.1,0,.3,0,.4,0s.3,0,.4,0c.1,0,.2,0,.4-.1s.2-.1.3-.2c.1,0,.2-.2.3-.2,0-.1.2-.2.2-.3,0-.1.1-.2.2-.3s0-.2.1-.4c0-.1,0-.3,0-.4s0-.3,0-.4c0-.1,0-.2-.1-.4Z"/>
          <path class="cls-4" d="M219,107.1h-6.6c-1.1,0-2,.9-2,2s.9,2,2,2h6.6c1.1,0,2-.9,2-2s-.9-2-2-2Z"/>
          <path class="cls-4" d="M210.2,87.9h11.1c1.1,0,2-.9,2-2s-.9-2-2-2h-11.1c-1.1,0-2,.9-2,2s.9,2,2,2Z"/>
          <path class="cls-4" d="M197.4,87.6c0,0,.2.1.3.2.1,0,.2,0,.4.1.1,0,.3,0,.4,0,.5,0,1-.2,1.4-.6.4-.4.6-.9.6-1.4s-.2-1-.6-1.4c-.5-.5-1.2-.7-1.8-.5-.1,0-.3,0-.4.1s-.2.1-.3.2c-.1,0-.2.1-.3.2-.4.4-.6.9-.6,1.4s.2,1,.6,1.4c0,0,.2.2.3.2Z"/>
          <path class="cls-4" d="M231.8,87.6c.1,0,.2.1.4.2.1,0,.2,0,.4.1.1,0,.3,0,.4,0,.5,0,1-.2,1.4-.6.4-.4.6-.9.6-1.4s-.2-1-.6-1.4-1.2-.7-1.8-.5c-.1,0-.2,0-.4.1s-.2.1-.4.2c0,0-.2.1-.3.2-.4.4-.6.9-.6,1.4s.2,1,.6,1.4c0,0,.2.2.3.2Z"/>
          <path class="cls-4" d="M196.9,64.7h37.6c1.1,0,2-.9,2-2s-.9-2-2-2h-37.6c-1.1,0-2,.9-2,2s.9,2,2,2Z"/>
          <path class="cls-4" d="M244.5,63.5c0,.1.1.2.2.4,0,.1.2.2.2.3,0,0,.2.2.3.2.1,0,.2.1.3.2s.2,0,.4.1c.1,0,.3,0,.4,0s.3,0,.4,0c.1,0,.2,0,.4-.1s.2-.1.3-.2c.1,0,.2-.2.3-.2,0,0,.2-.2.2-.3,0-.1.1-.2.2-.4,0-.1,0-.2.1-.4,0-.1,0-.3,0-.4s0-.3,0-.4c0-.1,0-.3-.1-.4,0-.1-.1-.2-.2-.3,0-.1-.2-.2-.2-.3,0,0-.2-.2-.3-.2-.1,0-.2-.1-.3-.2s-.2,0-.4-.1c-.3,0-.5,0-.8,0-.1,0-.3,0-.4.1s-.2.1-.3.2c-.1,0-.2.2-.3.2,0,0-.2.2-.2.3,0,.1-.1.2-.2.3,0,.1,0,.2-.1.4,0,.1,0,.3,0,.4s0,.3,0,.4c0,.1,0,.2.1.4Z"/>
          <path class="cls-4" d="M29.4,109.1c0-1.1-.9-2-2-2h-6.6c-1.1,0-2,.9-2,2s.9,2,2,2h6.6c1.1,0,2-.9,2-2Z"/>
          <path class="cls-4" d="M18.5,87.9h11.1c1.1,0,2-.9,2-2s-.9-2-2-2h-11.1c-1.1,0-2,.9-2,2s.9,2,2,2Z"/>
          <path class="cls-4" d="M5.2,64.7h37.6c1.1,0,2-.9,2-2s-.9-2-2-2H5.2c-1.1,0-2,.9-2,2s.9,2,2,2Z"/>
          <path class="cls-4" d="M123.2,107.1h-6.6c-1.1,0-2,.9-2,2s.9,2,2,2h6.6c1.1,0,2-.9,2-2s-.9-2-2-2Z"/>
          <path class="cls-4" d="M114.3,87.9h11.1c1.1,0,2-.9,2-2s-.9-2-2-2h-11.1c-1.1,0-2,.9-2,2s.9,2,2,2Z"/>
          <path class="cls-4" d="M101,64.7h37.6c1.1,0,2-.9,2-2s-.9-2-2-2h-37.6c-1.1,0-2,.9-2,2s.9,2,2,2Z"/>
          <path class="cls-4" d="M148.6,63.5c0,.1.1.2.2.4s.2.2.2.3c0,0,.2.2.3.2.1,0,.2.1.4.2.1,0,.2,0,.4.1.1,0,.3,0,.4,0s.3,0,.4,0c.1,0,.2,0,.4-.1.1,0,.2-.1.3-.2.1,0,.2-.2.3-.2,0,0,.2-.2.2-.3,0-.1.1-.2.2-.4s0-.2.1-.4c0-.1,0-.3,0-.4s0-.3,0-.4c0-.1,0-.3-.1-.4s-.1-.2-.2-.3c0-.1-.2-.2-.2-.3,0,0-.2-.2-.3-.2-.1,0-.2-.1-.3-.2-.1,0-.2,0-.4-.1-.3,0-.5,0-.8,0-.1,0-.2,0-.4.1-.1,0-.2.1-.4.2-.1,0-.2.2-.3.2,0,0-.2.2-.2.3,0,.1-.1.2-.2.3,0,.1,0,.2-.1.4,0,.1,0,.3,0,.4s0,.3,0,.4c0,.1,0,.2.1.4Z"/>
          <path class="cls-4" d="M312.2,140.8l-4.5-7.7c-1.7-3-5-4.9-8.4-4.9h-1.1c.2-.3.4-.6.6-.9,1.8-3,1.8-6.7,0-9.7l-4.5-7.7c-1.7-3-5-4.9-8.4-4.9h-1.1c.2-.3.4-.6.6-.9,1.8-3,1.8-6.7,0-9.7l-4.5-7.7c-1.7-3-5-4.9-8.4-4.9h-1.1c.2-.3.4-.6.6-.9,1.8-3,1.8-6.7,0-9.7-1.8-3-4.9-4.9-8.4-4.9s-.6,0-.9,0l1.6-2.7c1.8-3,1.8-6.7,0-9.7s-4.9-4.9-8.4-4.9h-80.3c-3.1,0-5.9,1.4-7.7,3.8-1.8-2.4-4.6-3.8-7.7-3.8h-80.3c-3.1,0-5.9,1.4-7.7,3.8-1.8-2.4-4.6-3.8-7.7-3.8H-16.1c-3.5,0-6.7,1.8-8.4,4.9-1.8,3-1.8,6.7,0,9.7l4.5,7.7c1.7,3,5,4.9,8.4,4.9h1.1c-.2.3-.4.6-.6.9-1.8,3-1.8,6.7,0,9.7l4.5,7.7c1.7,3,5,4.9,8.4,4.9h1.1c-.2.3-.4.6-.6.9-1.8,3-1.8,6.7,0,9.7l4.5,7.7c1.7,3,5,4.9,8.4,4.9h1.1c-.2.3-.4.6-.6.9-1.8,3-1.8,6.7,0,9.7,1.8,3,4.9,4.9,8.4,4.9s.6,0,.9,0l-1.6,2.7c-1.8,3-1.8,6.7,0,9.7,1.8,3,4.9,4.9,8.4,4.9h80.3c3.1,0,5.9-1.4,7.7-3.8,1.8,2.4,4.6,3.8,7.7,3.8h80.3c3.1,0,5.9-1.4,7.7-3.8,1.8,2.4,4.6,3.8,7.7,3.8h80.3c3.5,0,6.7-1.8,8.4-4.9,1.8-3,1.8-6.7,0-9.7ZM290.9,111.9l4.5,7.7c1,1.8,1,3.9,0,5.7-1,1.8-2.9,2.9-5,2.9h-53.6c-2.1,0-3.9-1.1-5-2.9-1-1.8-1-3.9,0-5.7l.3-.5c.3-.4.6-.8.9-1.3l4-6.9c1.1-1.2,2.6-1.9,4.3-1.9h44.6c2,0,3.9,1.1,5,2.9ZM215.7,139.6l-.9-1.5c.3,0,.6,0,.9,0,.3,0,.6,0,.9,0l-.9,1.5ZM119.9,139.6l-.9-1.5c.3,0,.6,0,.9,0s.6,0,.9,0l-.9,1.5ZM32.5,123.6c-.2-.3-.4-.6-.6-.9h1.1c.8,0,1.7-.1,2.5-.3,0,1.7.4,3.4,1.3,5,.2.3.4.6.6.9h-1.1c-.8,0-1.7.1-2.5.3,0-1.7-.4-3.4-1.3-5ZM40.2,125.4c-1-1.8-1-3.9,0-5.7l.3-.5c.3-.4.6-.8.9-1.3l4-6.9c1.1-1.2,2.6-1.9,4.3-1.9h44.6c1.6,0,3.2.7,4.3,1.9l4,6.9c.3.5.6.9.9,1.3l.3.5c1,1.8,1,3.9,0,5.7-1,1.8-2.9,2.9-5,2.9h-53.6c-2.1,0-3.9-1.1-5-2.9ZM45.9,100.4c-.2-.3-.4-.6-.6-.9h1.1c.8,0,1.7-.1,2.5-.3,0,1.7.4,3.4,1.3,5,.2.3.4.6.6.9h-1.1c-.8,0-1.7.1-2.5.3,0-1.7-.4-3.4-1.3-5ZM59.2,77.2c-.2-.3-.4-.6-.6-.9h1.1c.8,0,1.7-.1,2.5-.3,0,1.7.4,3.4,1.3,5,.2.3.4.6.6.9h-1.1c-.8,0-1.7.1-2.5.3,0-1.7-.4-3.4-1.3-5ZM71.9,64.9l.9,1.5c-.3,0-.6,0-.9,0s-.6,0-.9,0l.9-1.5ZM167.8,64.9l.9,1.5c-.3,0-.6,0-.9,0s-.6,0-.9,0l.9-1.5ZM255.2,81c.2.3.4.6.6.9h-1.1c-.8,0-1.7.1-2.5.3,0-1.7-.4-3.4-1.3-5-.2-.3-.4-.6-.6-.9h1.1c.8,0,1.7-.1,2.5-.3,0,1.7.4,3.4,1.3,5ZM247.4,79.2c1,1.8,1,3.9,0,5.7l-.3.5c-.3.4-.6.8-.9,1.3l-4,6.9c-1.1,1.2-2.6,1.9-4.3,1.9h-44.6c-1.6,0-3.2-.7-4.3-1.9l-4-6.9c-.3-.5-.6-.9-.9-1.3l-.3-.5c-1-1.8-1-3.9,0-5.7s2.9-2.9,5-2.9h53.6c2.1,0,3.9,1.1,5,2.9ZM241.8,104.2c.2.3.4.6.6.9h-1.1c-.8,0-1.7.1-2.5.3,0-1.7-.4-3.4-1.3-5-.2-.3-.4-.6-.6-.9h1.1c.8,0,1.7-.1,2.5-.3,0,1.7.4,3.4,1.3,5ZM232.9,109.9l-4,6.9c-1.1,1.2-2.6,1.9-4.3,1.9h-17.9c-1.6,0-3.2-.7-4.3-1.9l-4-6.9c-.3-.4-.6-.9-.9-1.3l-.3-.5c-1-1.8-1-3.9,0-5.7,1-1.8,2.9-2.9,5-2.9h26.8c2.1,0,3.9,1.1,5,2.9,1,1.8,1,3.9,0,5.7l-.3.5c-.3.4-.6.8-.9,1.3ZM220.7,125.6c1,1.8,1,3.9,0,5.7-1,1.8-2.9,2.9-5,2.9-2.1,0-3.9-1.1-5-2.9s-1-3.9,0-5.7,2.9-2.9,5-2.9,3.9,1.1,5,2.9ZM137,109.9l-4,6.9c-1.1,1.2-2.6,1.9-4.3,1.9h-17.9c-1.6,0-3.2-.7-4.3-1.9l-4-6.9c-.3-.5-.6-.9-.9-1.3l-.3-.5c-1-1.8-1-3.9,0-5.7,1-1.8,2.9-2.9,5-2.9h26.8c2.1,0,3.9,1.1,5,2.9,1,1.8,1,3.9,0,5.7l-.3.5c-.3.4-.6.8-.9,1.3ZM124.8,125.6c1,1.8,1,3.9,0,5.7-1,1.8-2.9,2.9-5,2.9s-3.9-1.1-5-2.9c-1-1.8-1-3.9,0-5.7,1-1.8,2.9-2.9,5-2.9s3.9,1.1,5,2.9ZM95.1,99.2c.8.2,1.6.3,2.5.3h1.1c-.2.3-.4.6-.6.9-.9,1.6-1.3,3.3-1.3,5-.8-.2-1.6-.3-2.5-.3h-1.1c.2-.3.4-.6.6-.9.9-1.6,1.3-3.3,1.3-5ZM141.7,100.4c-.2-.3-.4-.6-.6-.9h1.1c.8,0,1.7-.1,2.5-.3,0,1.7.4,3.4,1.3,5,.2.3.4.6.6.9h-1.1c-.8,0-1.7.1-2.5.3,0-1.7-.4-3.4-1.3-5ZM149.4,102.2c-1-1.8-1-3.9,0-5.7l.3-.5c.3-.4.6-.8.9-1.3l4-6.9c1.1-1.2,2.6-1.9,4.3-1.9h17.9c1.6,0,3.2.7,4.3,1.9l4,6.9c.3.4.6.9.9,1.3l.3.5c1,1.8,1,3.9,0,5.7-1,1.8-2.9,2.9-5,2.9h-26.8c-2.1,0-3.9-1.1-5-2.9ZM162.8,79c-1-1.8-1-3.9,0-5.7,1-1.8,2.9-2.9,5-2.9s3.9,1.1,5,2.9c1,1.8,1,3.9,0,5.7-1,1.8-2.9,2.9-5,2.9s-3.9-1.1-5-2.9ZM189.6,104.2c.9-1.6,1.3-3.3,1.3-5,.8.2,1.6.3,2.5.3h1.1c-.2.3-.4.6-.6.9-.9,1.6-1.3,3.3-1.3,5-.8-.2-1.6-.3-2.5-.3h-1.1c.2-.3.4-.6.6-.9ZM180.5,77.2c-.9,1.6-1.3,3.3-1.3,5-.8-.2-1.6-.3-2.5-.3h-1.1c.2-.3.4-.6.6-.9.9-1.6,1.3-3.3,1.3-5,.8.2,1.6.3,2.5.3h1.1c-.2.3-.4.6-.6.9ZM159.3,81c.2.3.4.6.6.9h-1.1c-.8,0-1.7.1-2.5.3,0-1.7-.4-3.4-1.3-5-.2-.3-.4-.6-.6-.9h1.1c.8,0,1.7-.1,2.5-.3,0,1.7.4,3.4,1.3,5ZM151.6,79.2c1,1.8,1,3.9,0,5.7l-.3.5c-.3.4-.6.8-.9,1.3l-4,6.9c-1.1,1.2-2.6,1.9-4.3,1.9h-44.6c-1.6,0-3.2-.7-4.3-1.9l-4-6.9c-.3-.5-.6-.9-.9-1.3l-.3-.5c-1-1.8-1-3.9,0-5.7,1-1.8,2.9-2.9,5-2.9h53.6c2.1,0,3.9,1.1,5,2.9ZM84.7,77.2c-.9,1.6-1.3,3.3-1.3,5-.8-.2-1.6-.3-2.5-.3h-1.1c.2-.3.4-.6.6-.9.9-1.6,1.3-3.3,1.3-5,.8.2,1.6.3,2.5.3h1.1c-.2.3-.4.6-.6.9ZM67,79c-1-1.8-1-3.9,0-5.7,1-1.8,2.9-2.9,5-2.9s3.9,1.1,5,2.9c1,1.8,1,3.9,0,5.7-1,1.8-2.9,2.9-5,2.9s-3.9-1.1-5-2.9ZM54.8,94.7l4-6.9c1.1-1.2,2.6-1.9,4.3-1.9h17.9c1.6,0,3.2.7,4.3,1.9l4,6.9c.3.5.6.9.9,1.3l.3.5c1,1.8,1,3.9,0,5.7-1,1.8-2.9,2.9-5,2.9h-26.8c-2.1,0-3.9-1.1-5-2.9-1-1.8-1-3.9,0-5.7l.3-.5c.3-.4.6-.8.9-1.3ZM107.2,127.4c.9-1.6,1.3-3.3,1.3-5,.8.2,1.6.3,2.5.3h1.1c-.2.3-.4.6-.6.9-.9,1.6-1.3,3.3-1.3,5-.8-.2-1.6-.3-2.5-.3h-1.1c.2-.3.4-.6.6-.9ZM128.3,123.6c-.2-.3-.4-.6-.6-.9h1.1c.8,0,1.7-.1,2.5-.3,0,1.7.4,3.4,1.3,5,.2.3.4.6.6.9h-1.1c-.8,0-1.7.1-2.5.3,0-1.7-.4-3.4-1.3-5ZM136,125.4c-1-1.8-1-3.9,0-5.7l.3-.5c.3-.4.6-.8.9-1.3l4-6.9c1.1-1.2,2.6-1.9,4.3-1.9h44.6c1.6,0,3.2.7,4.3,1.9l4,6.9c.3.5.6.9.9,1.3l.3.5c1,1.8,1,3.9,0,5.7-1,1.8-2.9,2.9-5,2.9h-53.6c-2.1,0-3.9-1.1-5-2.9ZM203,127.4c.9-1.6,1.3-3.3,1.3-5,.8.2,1.6.3,2.5.3h1.1c-.2.3-.4.6-.6.9-.9,1.6-1.3,3.3-1.3,5-.8-.2-1.6-.3-2.5-.3h-1.1c.2-.3.4-.6.6-.9ZM224.1,123.6c-.2-.3-.4-.6-.6-.9h1.1c.8,0,1.7-.1,2.5-.3,0,1.7.4,3.4,1.3,5,.2.3.4.6.6.9h-1.1c-.8,0-1.7.1-2.5.3,0-1.7-.4-3.4-1.3-5ZM277.5,88.7l4.5,7.7c1,1.8,1,3.9,0,5.7-1,1.8-2.9,2.9-5,2.9h-26.8c-2.1,0-3.9-1.1-5-2.9-1-1.8-1-3.9,0-5.7l.3-.5c.3-.4.6-.8.9-1.3l4-6.9c1.1-1.2,2.6-1.9,4.3-1.9h17.9c2,0,3.9,1.1,5,2.9ZM268.6,73.2c1,1.8,1,3.9,0,5.7-1,1.8-2.9,2.9-5,2.9s-3.9-1.1-5-2.9c-1-1.8-1-3.9,0-5.7,1-1.8,2.9-2.9,5-2.9s3.9,1.1,5,2.9ZM175.5,53.1h80.3c2.1,0,3.9,1.1,5,2.9,1,1.8,1,3.9,0,5.7l-4.5,7.7c-1,1.8-2.9,2.9-5,2.9h-71.4c-2,0-3.9-1.1-5-2.9l-4.5-7.7c-.5-.9-.8-1.9-.8-2.9h0c0-1,.3-2,.8-2.9,1-1.8,2.9-2.9,5-2.9ZM79.7,53.1h80.3c2.1,0,3.9,1.1,5,2.9.5.9.8,1.9.8,2.9h0c0,1-.3,2-.8,2.9l-4.5,7.7c-1,1.8-2.9,2.9-5,2.9h-71.4c-2,0-3.9-1.1-5-2.9l-4.5-7.7c-.5-.9-.8-1.9-.8-2.9h0c0-1,.3-2,.8-2.9,1-1.8,2.9-2.9,5-2.9ZM-16.6,69.5l-4.5-7.7c-1-1.8-1-3.9,0-5.7,1-1.8,2.9-2.9,5-2.9h80.3c2.1,0,3.9,1.1,5,2.9.5.9.8,1.9.8,2.9h0c0,1-.3,2-.8,2.9l-4.5,7.7c-1,1.8-2.9,2.9-5,2.9H-11.7c-2,0-3.9-1.1-5-2.9ZM-3.2,92.7l-4.5-7.7c-1-1.8-1-3.9,0-5.7,1-1.8,2.9-2.9,5-2.9h53.6c2.1,0,3.9,1.1,5,2.9,1,1.8,1,3.9,0,5.7l-.3.5c-.3.4-.6.8-.9,1.3l-4,6.9c-1.1,1.2-2.6,1.9-4.3,1.9H1.7c-2,0-3.9-1.1-5-2.9ZM10.1,115.9l-4.5-7.7c-1-1.8-1-3.9,0-5.7,1-1.8,2.9-2.9,5-2.9h26.8c2.1,0,3.9,1.1,5,2.9,1,1.8,1,3.9,0,5.7l-.3.5c-.3.4-.6.8-.9,1.3l-4,6.9c-1.1,1.2-2.6,1.9-4.3,1.9H15.1c-2,0-3.9-1.1-5-2.9ZM19.1,131.3c-1-1.8-1-3.9,0-5.7,1-1.8,2.9-2.9,5-2.9s3.9,1.1,5,2.9c1,1.8,1,3.9,0,5.7-1,1.8-2.9,2.9-5,2.9s-3.9-1.1-5-2.9ZM112.1,151.4H31.8c-2.1,0-3.9-1.1-5-2.9-1-1.8-1-3.9,0-5.7l4.5-7.7c1-1.8,2.9-2.9,5-2.9h71.4c2,0,3.9,1.1,5,2.9l4.5,7.7c.5.9.8,1.9.8,2.9,0,0,0,0,0,0,0,1-.3,2-.8,2.9-1,1.8-2.9,2.9-5,2.9ZM207.9,151.4h-80.3c-2.1,0-3.9-1.1-5-2.9-.5-.9-.8-1.9-.8-2.9,0,0,0,0,0,0,0-1,.3-2,.8-2.9l4.5-7.7c1-1.8,2.9-2.9,5-2.9h71.4c2,0,3.9,1.1,5,2.9l4.5,7.7c.5.9.8,1.9.8,2.9h0c0,1-.3,2-.8,2.9-1,1.8-2.9,2.9-5,2.9ZM308.7,148.6c-1,1.8-2.9,2.9-5,2.9h-80.3c-2.1,0-3.9-1.1-5-2.9-.5-.9-.8-1.9-.8-2.9h0c0-1,.3-2,.8-2.9l4.5-7.7c1-1.8,2.9-2.9,5-2.9h71.4c2,0,3.9,1.1,5,2.9l4.5,7.7c1,1.8,1,3.9,0,5.7Z"/>
          <path class="cls-4" d="M258.3,95.4c0,1.1.9,2,2,2h6.6c1.1,0,2-.9,2-2s-.9-2-2-2h-6.6c-1.1,0-2,.9-2,2Z"/>
          <path class="cls-4" d="M269.1,116.6h-11.1c-1.1,0-2,.9-2,2s.9,2,2,2h11.1c1.1,0,2-.9,2-2s-.9-2-2-2Z"/>
          <path class="cls-4" d="M248.3,117.9c0-.1-.1-.2-.2-.3,0-.1-.2-.2-.2-.3-.5-.5-1.2-.7-1.8-.5-.1,0-.3,0-.4.1s-.2.1-.3.2c-.1,0-.2.2-.3.2,0,0-.2.2-.2.3,0,.1-.1.2-.2.3,0,.1,0,.2-.1.4,0,.1,0,.3,0,.4,0,.5.2,1,.6,1.4.4.4.9.6,1.4.6s.3,0,.4,0c.1,0,.2,0,.4-.1.1,0,.2-.1.4-.2.1,0,.2-.2.3-.3.4-.4.6-.9.6-1.4s0-.3,0-.4c0-.1,0-.2-.1-.4Z"/>
          <path class="cls-4" d="M282.4,139.8h-37.6c-1.1,0-2,.9-2,2s.9,2,2,2h37.6c1.1,0,2-.9,2-2s-.9-2-2-2Z"/>
          <path class="cls-4" d="M292.8,140.4c0,0-.2.2-.2.3,0,.1-.1.2-.2.4,0,.1,0,.2-.1.4,0,.1,0,.3,0,.4,0,.5.2,1,.6,1.4s.9.6,1.4.6,1-.2,1.4-.6c.4-.4.6-.9.6-1.4s-.2-1-.6-1.4c-.8-.8-2.1-.7-2.8,0Z"/>
          <path class="cls-4" d="M234.8,141.1c0-.1-.1-.2-.2-.4,0,0-.2-.2-.2-.3-.8-.7-2.1-.7-2.8,0,0,0-.2.2-.2.3,0,.1-.1.2-.2.4,0,.1,0,.2-.1.4,0,.1,0,.3,0,.4,0,.5.2,1,.6,1.4.4.4.9.6,1.4.6s1-.2,1.4-.6c.4-.4.6-.9.6-1.4s0-.3,0-.4c0-.1,0-.2-.1-.4Z"/>
        </g>
        <g>
          <path class="cls-4" d="M24.6,140.8l-4.5-7.7c-1.7-3-5-4.9-8.4-4.9h-1.1c.2-.3.4-.6.6-.9,1.8-3,1.8-6.7,0-9.7l-4.5-7.7c-1.7-3-5-4.9-8.4-4.9h-1.1c.2-.3.4-.6.6-.9,1.8-3,1.8-6.7,0-9.7l-4.5-7.7c-1.7-3-5-4.9-8.4-4.9h-1.1c.2-.3.4-.6.6-.9,1.8-3,1.8-6.7,0-9.7-1.8-3-4.9-4.9-8.4-4.9s-.6,0-.9,0l1.6-2.7c1.8-3,1.8-6.7,0-9.7s-4.9-4.9-8.4-4.9h-80.3c-3.1,0-5.9,1.4-7.7,3.8-1.8-2.4-4.6-3.8-7.7-3.8h-80.3c-3.1,0-5.9,1.4-7.7,3.8-1.8-2.4-4.6-3.8-7.7-3.8h-80.3c-3.5,0-6.7,1.8-8.4,4.9-1.8,3-1.8,6.7,0,9.7l4.5,7.7c1.7,3,5,4.9,8.4,4.9h1.1c-.2.3-.4.6-.6.9-1.8,3-1.8,6.7,0,9.7l4.5,7.7c1.7,3,5,4.9,8.4,4.9h1.1c-.2.3-.4.6-.6.9-1.8,3-1.8,6.7,0,9.7l4.5,7.7c1.7,3,5,4.9,8.4,4.9h1.1c-.2.3-.4.6-.6.9-1.8,3-1.8,6.7,0,9.7,1.8,3,4.9,4.9,8.4,4.9s.6,0,.9,0l-1.6,2.7c-1.8,3-1.8,6.7,0,9.7,1.8,3,4.9,4.9,8.4,4.9h80.3c3.1,0,5.9-1.4,7.7-3.8,1.8,2.4,4.6,3.8,7.7,3.8h80.3c3.1,0,5.9-1.4,7.7-3.8,1.8,2.4,4.6,3.8,7.7,3.8H16.1c3.5,0,6.7-1.8,8.4-4.9,1.8-3,1.8-6.7,0-9.7ZM3.2,111.9l4.5,7.7c1,1.8,1,3.9,0,5.7-1,1.8-2.9,2.9-5,2.9h-53.6c-2.1,0-3.9-1.1-5-2.9-1-1.8-1-3.9,0-5.7l.3-.5c.3-.4.6-.8.9-1.3l4-6.9c1.1-1.2,2.6-1.9,4.3-1.9H-1.7c2,0,3.9,1.1,5,2.9ZM-72,139.6l-.9-1.5c.3,0,.6,0,.9,0,.3,0,.6,0,.9,0l-.9,1.5ZM-167.8,139.6l-.9-1.5c.3,0,.6,0,.9,0s.6,0,.9,0l-.9,1.5ZM-255.2,123.6c-.2-.3-.4-.6-.6-.9h1.1c.8,0,1.7-.1,2.5-.3,0,1.7.4,3.4,1.3,5,.2.3.4.6.6.9h-1.1c-.8,0-1.7.1-2.5.3,0-1.7-.4-3.4-1.3-5ZM-247.4,125.4c-1-1.8-1-3.9,0-5.7l.3-.5c.3-.4.6-.8.9-1.3l4-6.9c1.1-1.2,2.6-1.9,4.3-1.9h44.6c1.6,0,3.2.7,4.3,1.9l4,6.9c.3.5.6.9.9,1.3l.3.5c1,1.8,1,3.9,0,5.7-1,1.8-2.9,2.9-5,2.9h-53.6c-2.1,0-3.9-1.1-5-2.9ZM-241.8,100.4c-.2-.3-.4-.6-.6-.9h1.1c.8,0,1.7-.1,2.5-.3,0,1.7.4,3.4,1.3,5,.2.3.4.6.6.9h-1.1c-.8,0-1.7.1-2.5.3,0-1.7-.4-3.4-1.3-5ZM-228.4,77.2c-.2-.3-.4-.6-.6-.9h1.1c.8,0,1.7-.1,2.5-.3,0,1.7.4,3.4,1.3,5,.2.3.4.6.6.9h-1.1c-.8,0-1.7.1-2.5.3,0-1.7-.4-3.4-1.3-5ZM-215.7,64.9l.9,1.5c-.3,0-.6,0-.9,0s-.6,0-.9,0l.9-1.5ZM-119.9,64.9l.9,1.5c-.3,0-.6,0-.9,0s-.6,0-.9,0l.9-1.5ZM-32.5,81c.2.3.4.6.6.9h-1.1c-.8,0-1.7.1-2.5.3,0-1.7-.4-3.4-1.3-5-.2-.3-.4-.6-.6-.9h1.1c.8,0,1.7-.1,2.5-.3,0,1.7.4,3.4,1.3,5ZM-40.2,79.2c1,1.8,1,3.9,0,5.7l-.3.5c-.3.4-.6.8-.9,1.3l-4,6.9c-1.1,1.2-2.6,1.9-4.3,1.9h-44.6c-1.6,0-3.2-.7-4.3-1.9l-4-6.9c-.3-.5-.6-.9-.9-1.3l-.3-.5c-1-1.8-1-3.9,0-5.7s2.9-2.9,5-2.9h53.6c2.1,0,3.9,1.1,5,2.9ZM-45.9,104.2c.2.3.4.6.6.9h-1.1c-.8,0-1.7.1-2.5.3,0-1.7-.4-3.4-1.3-5-.2-.3-.4-.6-.6-.9h1.1c.8,0,1.7-.1,2.5-.3,0,1.7.4,3.4,1.3,5ZM-54.8,109.9l-4,6.9c-1.1,1.2-2.6,1.9-4.3,1.9h-17.9c-1.6,0-3.2-.7-4.3-1.9l-4-6.9c-.3-.4-.6-.9-.9-1.3l-.3-.5c-1-1.8-1-3.9,0-5.7,1-1.8,2.9-2.9,5-2.9h26.8c2.1,0,3.9,1.1,5,2.9,1,1.8,1,3.9,0,5.7l-.3.5c-.3.4-.6.8-.9,1.3ZM-67,125.6c1,1.8,1,3.9,0,5.7-1,1.8-2.9,2.9-5,2.9-2.1,0-3.9-1.1-5-2.9s-1-3.9,0-5.7,2.9-2.9,5-2.9,3.9,1.1,5,2.9ZM-150.6,109.9l-4,6.9c-1.1,1.2-2.6,1.9-4.3,1.9h-17.9c-1.6,0-3.2-.7-4.3-1.9l-4-6.9c-.3-.5-.6-.9-.9-1.3l-.3-.5c-1-1.8-1-3.9,0-5.7,1-1.8,2.9-2.9,5-2.9h26.8c2.1,0,3.9,1.1,5,2.9,1,1.8,1,3.9,0,5.7l-.3.5c-.3.4-.6.8-.9,1.3ZM-162.8,125.6c1,1.8,1,3.9,0,5.7-1,1.8-2.9,2.9-5,2.9s-3.9-1.1-5-2.9c-1-1.8-1-3.9,0-5.7,1-1.8,2.9-2.9,5-2.9s3.9,1.1,5,2.9ZM-192.6,99.2c.8.2,1.6.3,2.5.3h1.1c-.2.3-.4.6-.6.9-.9,1.6-1.3,3.3-1.3,5-.8-.2-1.6-.3-2.5-.3h-1.1c.2-.3.4-.6.6-.9.9-1.6,1.3-3.3,1.3-5ZM-146,100.4c-.2-.3-.4-.6-.6-.9h1.1c.8,0,1.7-.1,2.5-.3,0,1.7.4,3.4,1.3,5,.2.3.4.6.6.9h-1.1c-.8,0-1.7.1-2.5.3,0-1.7-.4-3.4-1.3-5ZM-138.2,102.2c-1-1.8-1-3.9,0-5.7l.3-.5c.3-.4.6-.8.9-1.3l4-6.9c1.1-1.2,2.6-1.9,4.3-1.9h17.9c1.6,0,3.2.7,4.3,1.9l4,6.9c.3.4.6.9.9,1.3l.3.5c1,1.8,1,3.9,0,5.7-1,1.8-2.9,2.9-5,2.9h-26.8c-2.1,0-3.9-1.1-5-2.9ZM-124.8,79c-1-1.8-1-3.9,0-5.7,1-1.8,2.9-2.9,5-2.9s3.9,1.1,5,2.9c1,1.8,1,3.9,0,5.7-1,1.8-2.9,2.9-5,2.9s-3.9-1.1-5-2.9ZM-98,104.2c.9-1.6,1.3-3.3,1.3-5,.8.2,1.6.3,2.5.3h1.1c-.2.3-.4.6-.6.9-.9,1.6-1.3,3.3-1.3,5-.8-.2-1.6-.3-2.5-.3h-1.1c.2-.3.4-.6.6-.9ZM-107.2,77.2c-.9,1.6-1.3,3.3-1.3,5-.8-.2-1.6-.3-2.5-.3h-1.1c.2-.3.4-.6.6-.9.9-1.6,1.3-3.3,1.3-5,.8.2,1.6.3,2.5.3h1.1c-.2.3-.4.6-.6.9ZM-128.3,81c.2.3.4.6.6.9h-1.1c-.8,0-1.7.1-2.5.3,0-1.7-.4-3.4-1.3-5-.2-.3-.4-.6-.6-.9h1.1c.8,0,1.7-.1,2.5-.3,0,1.7.4,3.4,1.3,5ZM-136,79.2c1,1.8,1,3.9,0,5.7l-.3.5c-.3.4-.6.8-.9,1.3l-4,6.9c-1.1,1.2-2.6,1.9-4.3,1.9h-44.6c-1.6,0-3.2-.7-4.3-1.9l-4-6.9c-.3-.5-.6-.9-.9-1.3l-.3-.5c-1-1.8-1-3.9,0-5.7,1-1.8,2.9-2.9,5-2.9h53.6c2.1,0,3.9,1.1,5,2.9ZM-203,77.2c-.9,1.6-1.3,3.3-1.3,5-.8-.2-1.6-.3-2.5-.3h-1.1c.2-.3.4-.6.6-.9.9-1.6,1.3-3.3,1.3-5,.8.2,1.6.3,2.5.3h1.1c-.2.3-.4.6-.6.9ZM-220.7,79c-1-1.8-1-3.9,0-5.7,1-1.8,2.9-2.9,5-2.9s3.9,1.1,5,2.9c1,1.8,1,3.9,0,5.7-1,1.8-2.9,2.9-5,2.9s-3.9-1.1-5-2.9ZM-232.9,94.7l4-6.9c1.1-1.2,2.6-1.9,4.3-1.9h17.9c1.6,0,3.2.7,4.3,1.9l4,6.9c.3.5.6.9.9,1.3l.3.5c1,1.8,1,3.9,0,5.7-1,1.8-2.9,2.9-5,2.9h-26.8c-2.1,0-3.9-1.1-5-2.9-1-1.8-1-3.9,0-5.7l.3-.5c.3-.4.6-.8.9-1.3ZM-180.5,127.4c.9-1.6,1.3-3.3,1.3-5,.8.2,1.6.3,2.5.3h1.1c-.2.3-.4.6-.6.9-.9,1.6-1.3,3.3-1.3,5-.8-.2-1.6-.3-2.5-.3h-1.1c.2-.3.4-.6.6-.9ZM-159.4,123.6c-.2-.3-.4-.6-.6-.9h1.1c.8,0,1.7-.1,2.5-.3,0,1.7.4,3.4,1.3,5,.2.3.4.6.6.9h-1.1c-.8,0-1.7.1-2.5.3,0-1.7-.4-3.4-1.3-5ZM-151.6,125.4c-1-1.8-1-3.9,0-5.7l.3-.5c.3-.4.6-.8.9-1.3l4-6.9c1.1-1.2,2.6-1.9,4.3-1.9h44.6c1.6,0,3.2.7,4.3,1.9l4,6.9c.3.5.6.9.9,1.3l.3.5c1,1.8,1,3.9,0,5.7-1,1.8-2.9,2.9-5,2.9h-53.6c-2.1,0-3.9-1.1-5-2.9ZM-84.7,127.4c.9-1.6,1.3-3.3,1.3-5,.8.2,1.6.3,2.5.3h1.1c-.2.3-.4.6-.6.9-.9,1.6-1.3,3.3-1.3,5-.8-.2-1.6-.3-2.5-.3h-1.1c.2-.3.4-.6.6-.9ZM-63.5,123.6c-.2-.3-.4-.6-.6-.9h1.1c.8,0,1.7-.1,2.5-.3,0,1.7.4,3.4,1.3,5,.2.3.4.6.6.9h-1.1c-.8,0-1.7.1-2.5.3,0-1.7-.4-3.4-1.3-5ZM-10.1,88.7l4.5,7.7c1,1.8,1,3.9,0,5.7-1,1.8-2.9,2.9-5,2.9h-26.8c-2.1,0-3.9-1.1-5-2.9-1-1.8-1-3.9,0-5.7l.3-.5c.3-.4.6-.8.9-1.3l4-6.9c1.1-1.2,2.6-1.9,4.3-1.9H-15.1c2,0,3.9,1.1,5,2.9ZM-19.1,73.2c1,1.8,1,3.9,0,5.7-1,1.8-2.9,2.9-5,2.9s-3.9-1.1-5-2.9c-1-1.8-1-3.9,0-5.7,1-1.8,2.9-2.9,5-2.9s3.9,1.1,5,2.9ZM-112.1,53.1H-31.8c2.1,0,3.9,1.1,5,2.9,1,1.8,1,3.9,0,5.7l-4.5,7.7c-1,1.8-2.9,2.9-5,2.9h-71.4c-2,0-3.9-1.1-5-2.9l-4.5-7.7c-.5-.9-.8-1.9-.8-2.9h0c0-1,.3-2,.8-2.9,1-1.8,2.9-2.9,5-2.9ZM-208,53.1h80.3c2.1,0,3.9,1.1,5,2.9.5.9.8,1.9.8,2.9h0c0,1-.3,2-.8,2.9l-4.5,7.7c-1,1.8-2.9,2.9-5,2.9h-71.4c-2,0-3.9-1.1-5-2.9l-4.5-7.7c-.5-.9-.8-1.9-.8-2.9h0c0-1,.3-2,.8-2.9,1-1.8,2.9-2.9,5-2.9ZM-304.3,69.5l-4.5-7.7c-1-1.8-1-3.9,0-5.7,1-1.8,2.9-2.9,5-2.9h80.3c2.1,0,3.9,1.1,5,2.9.5.9.8,1.9.8,2.9h0c0,1-.3,2-.8,2.9l-4.5,7.7c-1,1.8-2.9,2.9-5,2.9h-71.4c-2,0-3.9-1.1-5-2.9ZM-290.9,92.7l-4.5-7.7c-1-1.8-1-3.9,0-5.7,1-1.8,2.9-2.9,5-2.9h53.6c2.1,0,3.9,1.1,5,2.9,1,1.8,1,3.9,0,5.7l-.3.5c-.3.4-.6.8-.9,1.3l-4,6.9c-1.1,1.2-2.6,1.9-4.3,1.9h-44.6c-2,0-3.9-1.1-5-2.9ZM-277.5,115.9l-4.5-7.7c-1-1.8-1-3.9,0-5.7,1-1.8,2.9-2.9,5-2.9h26.8c2.1,0,3.9,1.1,5,2.9,1,1.8,1,3.9,0,5.7l-.3.5c-.3.4-.6.8-.9,1.3l-4,6.9c-1.1,1.2-2.6,1.9-4.3,1.9h-17.9c-2,0-3.9-1.1-5-2.9ZM-268.6,131.3c-1-1.8-1-3.9,0-5.7,1-1.8,2.9-2.9,5-2.9s3.9,1.1,5,2.9c1,1.8,1,3.9,0,5.7-1,1.8-2.9,2.9-5,2.9s-3.9-1.1-5-2.9ZM-175.5,151.4h-80.3c-2.1,0-3.9-1.1-5-2.9-1-1.8-1-3.9,0-5.7l4.5-7.7c1-1.8,2.9-2.9,5-2.9h71.4c2,0,3.9,1.1,5,2.9l4.5,7.7c.5.9.8,1.9.8,2.9,0,0,0,0,0,0,0,1-.3,2-.8,2.9-1,1.8-2.9,2.9-5,2.9ZM-79.7,151.4h-80.3c-2.1,0-3.9-1.1-5-2.9-.5-.9-.8-1.9-.8-2.9,0,0,0,0,0,0,0-1,.3-2,.8-2.9l4.5-7.7c1-1.8,2.9-2.9,5-2.9h71.4c2,0,3.9,1.1,5,2.9l4.5,7.7c.5.9.8,1.9.8,2.9h0c0,1-.3,2-.8,2.9-1,1.8-2.9,2.9-5,2.9ZM21.1,148.6c-1,1.8-2.9,2.9-5,2.9h-80.3c-2.1,0-3.9-1.1-5-2.9-.5-.9-.8-1.9-.8-2.9h0c0-1,.3-2,.8-2.9l4.5-7.7c1-1.8,2.9-2.9,5-2.9H11.7c2,0,3.9,1.1,5,2.9l4.5,7.7c1,1.8,1,3.9,0,5.7Z"/>
          <path class="cls-4" d="M5.2,140.4c0,0-.2.2-.2.3,0,.1-.1.2-.2.4,0,.1,0,.2-.1.4,0,.1,0,.3,0,.4,0,.5.2,1,.6,1.4s.9.6,1.4.6,1-.2,1.4-.6c.4-.4.6-.9.6-1.4s-.2-1-.6-1.4c-.8-.8-2.1-.7-2.8,0Z"/>
        </g>
        <path class="cls-4" d="M599.8,38.5l-4.5-7.7c-1.7-3-5-4.9-8.4-4.9h-1.1c.2-.3.4-.6.6-.9,1.8-3,1.8-6.7,0-9.7l-4.5-7.7c-1.7-3-5-4.9-8.4-4.9h-1.1c.2-.3.4-.6.6-.9,1.8-3,1.8-6.7,0-9.7l-4.5-7.7c-1.7-3-5-4.9-8.4-4.9h-1.1c.2-.3.4-.6.6-.9,1.8-3,1.8-6.7,0-9.7-1.8-3-4.9-4.9-8.4-4.9s-.6,0-.9,0l1.6-2.7c1.8-3,1.8-6.7,0-9.7s-4.9-4.9-8.4-4.9h-80.3c-3.1,0-5.9,1.4-7.7,3.8-1.8-2.4-4.6-3.8-7.7-3.8h-80.3c-3.1,0-5.9,1.4-7.7,3.8-1.8-2.4-4.6-3.8-7.7-3.8h-80.3c-3.5,0-6.7,1.8-8.4,4.9-1.8,3-1.8,6.7,0,9.7l4.5,7.7c1.7,3,5,4.9,8.4,4.9h1.1c-.2.3-.4.6-.6.9-1.8,3-1.8,6.7,0,9.7l4.5,7.7c1.7,3,5,4.9,8.4,4.9h1.1c-.2.3-.4.6-.6.9-1.8,3-1.8,6.7,0,9.7l4.5,7.7c1.7,3,5,4.9,8.4,4.9h1.1c-.2.3-.4.6-.6.9-1.8,3-1.8,6.7,0,9.7,1.8,3,4.9,4.9,8.4,4.9s.6,0,.9,0l-1.6,2.7c-1.8,3-1.8,6.7,0,9.7,1.8,3,4.9,4.9,8.4,4.9h80.3c3.1,0,5.9-1.4,7.7-3.8,1.8,2.4,4.6,3.8,7.7,3.8h80.3c3.1,0,5.9-1.4,7.7-3.8,1.8,2.4,4.6,3.8,7.7,3.8h80.3c3.5,0,6.7-1.8,8.4-4.9,1.8-3,1.8-6.7,0-9.7ZM578.5,9.6l4.5,7.7c1,1.8,1,3.9,0,5.7-1,1.8-2.9,2.9-5,2.9h-53.6c-2.1,0-3.9-1.1-5-2.9-1-1.8-1-3.9,0-5.7l.3-.5c.3-.4.6-.8.9-1.3l4-6.9c1.1-1.2,2.6-1.9,4.3-1.9h44.6c2,0,3.9,1.1,5,2.9ZM503.3,37.4l-.9-1.5c.3,0,.6,0,.9,0,.3,0,.6,0,.9,0l-.9,1.5ZM407.5,37.4l-.9-1.5c.3,0,.6,0,.9,0s.6,0,.9,0l-.9,1.5ZM320.1,21.3c-.2-.3-.4-.6-.6-.9h1.1c.8,0,1.7-.1,2.5-.3,0,1.7.4,3.4,1.3,5,.2.3.4.6.6.9h-1.1c-.8,0-1.7.1-2.5.3,0-1.7-.4-3.4-1.3-5ZM327.8,23.1c-1-1.8-1-3.9,0-5.7l.3-.5c.3-.4.6-.8.9-1.3l4-6.9c1.1-1.2,2.6-1.9,4.3-1.9h44.6c1.6,0,3.2.7,4.3,1.9l4,6.9c.3.5.6.9.9,1.3l.3.5c1,1.8,1,3.9,0,5.7-1,1.8-2.9,2.9-5,2.9h-53.6c-2.1,0-3.9-1.1-5-2.9ZM333.5-1.9c-.2-.3-.4-.6-.6-.9h1.1c.8,0,1.7-.1,2.5-.3,0,1.7.4,3.4,1.3,5,.2.3.4.6.6.9h-1.1c-.8,0-1.7.1-2.5.3,0-1.7-.4-3.4-1.3-5ZM346.9-25.1c-.2-.3-.4-.6-.6-.9h1.1c.8,0,1.7-.1,2.5-.3,0,1.7.4,3.4,1.3,5,.2.3.4.6.6.9h-1.1c-.8,0-1.7.1-2.5.3,0-1.7-.4-3.4-1.3-5ZM359.6-37.4l.9,1.5c-.3,0-.6,0-.9,0s-.6,0-.9,0l.9-1.5ZM455.4-37.4l.9,1.5c-.3,0-.6,0-.9,0s-.6,0-.9,0l.9-1.5ZM542.8-21.3c.2.3.4.6.6.9h-1.1c-.8,0-1.7.1-2.5.3,0-1.7-.4-3.4-1.3-5-.2-.3-.4-.6-.6-.9h1.1c.8,0,1.7-.1,2.5-.3,0,1.7.4,3.4,1.3,5ZM535.1-23.1c1,1.8,1,3.9,0,5.7l-.3.5c-.3.4-.6.8-.9,1.3l-4,6.9c-1.1,1.2-2.6,1.9-4.3,1.9h-44.6c-1.6,0-3.2-.7-4.3-1.9l-4-6.9c-.3-.5-.6-.9-.9-1.3l-.3-.5c-1-1.8-1-3.9,0-5.7s2.9-2.9,5-2.9h53.6c2.1,0,3.9,1.1,5,2.9ZM529.4,1.9c.2.3.4.6.6.9h-1.1c-.8,0-1.7.1-2.5.3,0-1.7-.4-3.4-1.3-5-.2-.3-.4-.6-.6-.9h1.1c.8,0,1.7-.1,2.5-.3,0,1.7.4,3.4,1.3,5ZM520.5,7.6l-4,6.9c-1.1,1.2-2.6,1.9-4.3,1.9h-17.9c-1.6,0-3.2-.7-4.3-1.9l-4-6.9c-.3-.4-.6-.9-.9-1.3l-.3-.5c-1-1.8-1-3.9,0-5.7,1-1.8,2.9-2.9,5-2.9h26.8c2.1,0,3.9,1.1,5,2.9,1,1.8,1,3.9,0,5.7l-.3.5c-.3.4-.6.8-.9,1.3ZM508.3,23.3c1,1.8,1,3.9,0,5.7-1,1.8-2.9,2.9-5,2.9-2.1,0-3.9-1.1-5-2.9s-1-3.9,0-5.7,2.9-2.9,5-2.9,3.9,1.1,5,2.9ZM424.7,7.6l-4,6.9c-1.1,1.2-2.6,1.9-4.3,1.9h-17.9c-1.6,0-3.2-.7-4.3-1.9l-4-6.9c-.3-.5-.6-.9-.9-1.3l-.3-.5c-1-1.8-1-3.9,0-5.7,1-1.8,2.9-2.9,5-2.9h26.8c2.1,0,3.9,1.1,5,2.9,1,1.8,1,3.9,0,5.7l-.3.5c-.3.4-.6.8-.9,1.3ZM412.5,23.3c1,1.8,1,3.9,0,5.7-1,1.8-2.9,2.9-5,2.9s-3.9-1.1-5-2.9c-1-1.8-1-3.9,0-5.7,1-1.8,2.9-2.9,5-2.9s3.9,1.1,5,2.9ZM382.7-3.1c.8.2,1.6.3,2.5.3h1.1c-.2.3-.4.6-.6.9-.9,1.6-1.3,3.3-1.3,5-.8-.2-1.6-.3-2.5-.3h-1.1c.2-.3.4-.6.6-.9.9-1.6,1.3-3.3,1.3-5ZM429.3-1.9c-.2-.3-.4-.6-.6-.9h1.1c.8,0,1.7-.1,2.5-.3,0,1.7.4,3.4,1.3,5,.2.3.4.6.6.9h-1.1c-.8,0-1.7.1-2.5.3,0-1.7-.4-3.4-1.3-5ZM437.1-.1c-1-1.8-1-3.9,0-5.7l.3-.5c.3-.4.6-.8.9-1.3l4-6.9c1.1-1.2,2.6-1.9,4.3-1.9h17.9c1.6,0,3.2.7,4.3,1.9l4,6.9c.3.4.6.9.9,1.3l.3.5c1,1.8,1,3.9,0,5.7-1,1.8-2.9,2.9-5,2.9h-26.8c-2.1,0-3.9-1.1-5-2.9ZM450.5-23.3c-1-1.8-1-3.9,0-5.7,1-1.8,2.9-2.9,5-2.9s3.9,1.1,5,2.9c1,1.8,1,3.9,0,5.7-1,1.8-2.9,2.9-5,2.9s-3.9-1.1-5-2.9ZM477.2,1.9c.9-1.6,1.3-3.3,1.3-5,.8.2,1.6.3,2.5.3h1.1c-.2.3-.4.6-.6.9-.9,1.6-1.3,3.3-1.3,5-.8-.2-1.6-.3-2.5-.3h-1.1c.2-.3.4-.6.6-.9ZM468.1-25.1c-.9,1.6-1.3,3.3-1.3,5-.8-.2-1.6-.3-2.5-.3h-1.1c.2-.3.4-.6.6-.9.9-1.6,1.3-3.3,1.3-5,.8.2,1.6.3,2.5.3h1.1c-.2.3-.4.6-.6.9ZM447-21.3c.2.3.4.6.6.9h-1.1c-.8,0-1.7.1-2.5.3,0-1.7-.4-3.4-1.3-5-.2-.3-.4-.6-.6-.9h1.1c.8,0,1.7-.1,2.5-.3,0,1.7.4,3.4,1.3,5ZM439.2-23.1c1,1.8,1,3.9,0,5.7l-.3.5c-.3.4-.6.8-.9,1.3l-4,6.9c-1.1,1.2-2.6,1.9-4.3,1.9h-44.6c-1.6,0-3.2-.7-4.3-1.9l-4-6.9c-.3-.5-.6-.9-.9-1.3l-.3-.5c-1-1.8-1-3.9,0-5.7,1-1.8,2.9-2.9,5-2.9h53.6c2.1,0,3.9,1.1,5,2.9ZM372.3-25.1c-.9,1.6-1.3,3.3-1.3,5-.8-.2-1.6-.3-2.5-.3h-1.1c.2-.3.4-.6.6-.9.9-1.6,1.3-3.3,1.3-5,.8.2,1.6.3,2.5.3h1.1c-.2.3-.4.6-.6.9ZM354.6-23.3c-1-1.8-1-3.9,0-5.7,1-1.8,2.9-2.9,5-2.9s3.9,1.1,5,2.9c1,1.8,1,3.9,0,5.7-1,1.8-2.9,2.9-5,2.9s-3.9-1.1-5-2.9ZM342.4-7.6l4-6.9c1.1-1.2,2.6-1.9,4.3-1.9h17.9c1.6,0,3.2.7,4.3,1.9l4,6.9c.3.5.6.9.9,1.3l.3.5c1,1.8,1,3.9,0,5.7-1,1.8-2.9,2.9-5,2.9h-26.8c-2.1,0-3.9-1.1-5-2.9-1-1.8-1-3.9,0-5.7l.3-.5c.3-.4.6-.8.9-1.3ZM394.8,25.1c.9-1.6,1.3-3.3,1.3-5,.8.2,1.6.3,2.5.3h1.1c-.2.3-.4.6-.6.9-.9,1.6-1.3,3.3-1.3,5-.8-.2-1.6-.3-2.5-.3h-1.1c.2-.3.4-.6.6-.9ZM415.9,21.3c-.2-.3-.4-.6-.6-.9h1.1c.8,0,1.7-.1,2.5-.3,0,1.7.4,3.4,1.3,5,.2.3.4.6.6.9h-1.1c-.8,0-1.7.1-2.5.3,0-1.7-.4-3.4-1.3-5ZM423.7,23.1c-1-1.8-1-3.9,0-5.7l.3-.5c.3-.4.6-.8.9-1.3l4-6.9c1.1-1.2,2.6-1.9,4.3-1.9h44.6c1.6,0,3.2.7,4.3,1.9l4,6.9c.3.5.6.9.9,1.3l.3.5c1,1.8,1,3.9,0,5.7-1,1.8-2.9,2.9-5,2.9h-53.6c-2.1,0-3.9-1.1-5-2.9ZM490.6,25.1c.9-1.6,1.3-3.3,1.3-5,.8.2,1.6.3,2.5.3h1.1c-.2.3-.4.6-.6.9-.9,1.6-1.3,3.3-1.3,5-.8-.2-1.6-.3-2.5-.3h-1.1c.2-.3.4-.6.6-.9ZM511.8,21.3c-.2-.3-.4-.6-.6-.9h1.1c.8,0,1.7-.1,2.5-.3,0,1.7.4,3.4,1.3,5,.2.3.4.6.6.9h-1.1c-.8,0-1.7.1-2.5.3,0-1.7-.4-3.4-1.3-5ZM565.1-13.6l4.5,7.7c1,1.8,1,3.9,0,5.7-1,1.8-2.9,2.9-5,2.9h-26.8c-2.1,0-3.9-1.1-5-2.9-1-1.8-1-3.9,0-5.7l.3-.5c.3-.4.6-.8.9-1.3l4-6.9c1.1-1.2,2.6-1.9,4.3-1.9h17.9c2,0,3.9,1.1,5,2.9ZM556.2-29c1,1.8,1,3.9,0,5.7-1,1.8-2.9,2.9-5,2.9s-3.9-1.1-5-2.9c-1-1.8-1-3.9,0-5.7,1-1.8,2.9-2.9,5-2.9s3.9,1.1,5,2.9ZM463.2-49.1h80.3c2.1,0,3.9,1.1,5,2.9,1,1.8,1,3.9,0,5.7l-4.5,7.7c-1,1.8-2.9,2.9-5,2.9h-71.4c-2,0-3.9-1.1-5-2.9l-4.5-7.7c-.5-.9-.8-1.9-.8-2.9h0c0-1,.3-2,.8-2.9,1-1.8,2.9-2.9,5-2.9ZM367.3-49.1h80.3c2.1,0,3.9,1.1,5,2.9.5.9.8,1.9.8,2.9h0c0,1-.3,2-.8,2.9l-4.5,7.7c-1,1.8-2.9,2.9-5,2.9h-71.4c-2,0-3.9-1.1-5-2.9l-4.5-7.7c-.5-.9-.8-1.9-.8-2.9h0c0-1,.3-2,.8-2.9,1-1.8,2.9-2.9,5-2.9ZM271-32.8l-4.5-7.7c-1-1.8-1-3.9,0-5.7,1-1.8,2.9-2.9,5-2.9h80.3c2.1,0,3.9,1.1,5,2.9.5.9.8,1.9.8,2.9h0c0,1-.3,2-.8,2.9l-4.5,7.7c-1,1.8-2.9,2.9-5,2.9h-71.4c-2,0-3.9-1.1-5-2.9ZM284.4-9.6l-4.5-7.7c-1-1.8-1-3.9,0-5.7,1-1.8,2.9-2.9,5-2.9h53.6c2.1,0,3.9,1.1,5,2.9,1,1.8,1,3.9,0,5.7l-.3.5c-.3.4-.6.8-.9,1.3l-4,6.9c-1.1,1.2-2.6,1.9-4.3,1.9h-44.6c-2,0-3.9-1.1-5-2.9ZM297.8,13.6l-4.5-7.7c-1-1.8-1-3.9,0-5.7,1-1.8,2.9-2.9,5-2.9h26.8c2.1,0,3.9,1.1,5,2.9,1,1.8,1,3.9,0,5.7l-.3.5c-.3.4-.6.8-.9,1.3l-4,6.9c-1.1,1.2-2.6,1.9-4.3,1.9h-17.9c-2,0-3.9-1.1-5-2.9ZM306.7,29c-1-1.8-1-3.9,0-5.7,1-1.8,2.9-2.9,5-2.9s3.9,1.1,5,2.9c1,1.8,1,3.9,0,5.7-1,1.8-2.9,2.9-5,2.9s-3.9-1.1-5-2.9ZM399.8,49.1h-80.3c-2.1,0-3.9-1.1-5-2.9-1-1.8-1-3.9,0-5.7l4.5-7.7c1-1.8,2.9-2.9,5-2.9h71.4c2,0,3.9,1.1,5,2.9l4.5,7.7c.5.9.8,1.9.8,2.9,0,0,0,0,0,0,0,1-.3,2-.8,2.9-1,1.8-2.9,2.9-5,2.9ZM495.6,49.1h-80.3c-2.1,0-3.9-1.1-5-2.9-.5-.9-.8-1.9-.8-2.9,0,0,0,0,0,0,0-1,.3-2,.8-2.9l4.5-7.7c1-1.8,2.9-2.9,5-2.9h71.4c2,0,3.9,1.1,5,2.9l4.5,7.7c.5.9.8,1.9.8,2.9h0c0,1-.3,2-.8,2.9-1,1.8-2.9,2.9-5,2.9ZM596.4,46.3c-1,1.8-2.9,2.9-5,2.9h-80.3c-2.1,0-3.9-1.1-5-2.9-.5-.9-.8-1.9-.8-2.9h0c0-1,.3-2,.8-2.9l4.5-7.7c1-1.8,2.9-2.9,5-2.9h71.4c2,0,3.9,1.1,5,2.9l4.5,7.7c1,1.8,1,3.9,0,5.7Z"/>
        <g>
          <path class="cls-4" d="M77.5,14.4h-11.1c-1.1,0-2,.9-2,2s.9,2,2,2h11.1c1.1,0,2-.9,2-2s-.9-2-2-2Z"/>
          <path class="cls-4" d="M90.8,37.5h-37.6c-1.1,0-2,.9-2,2s.9,2,2,2h37.6c1.1,0,2-.9,2-2s-.9-2-2-2Z"/>
          <path class="cls-4" d="M173.3,14.4h-11.1c-1.1,0-2,.9-2,2s.9,2,2,2h11.1c1.1,0,2-.9,2-2s-.9-2-2-2Z"/>
          <path class="cls-4" d="M151.7,14.7c-.1,0-.2-.1-.3-.2s-.2,0-.4-.1c-.7-.1-1.3,0-1.8.5-.4.4-.6.9-.6,1.4s0,.5.2.8c0,.2.2.5.4.6,0,0,.2.2.3.3.1,0,.2.1.3.2.1,0,.2,0,.4.1.1,0,.3,0,.4,0,.5,0,1-.2,1.4-.6s.6-.9.6-1.4-.2-1-.6-1.4-.2-.2-.3-.2Z"/>
          <path class="cls-4" d="M186.6,37.5h-37.6c-1.1,0-2,.9-2,2s.9,2,2,2h37.6c1.1,0,2-.9,2-2s-.9-2-2-2Z"/>
          <path class="cls-4" d="M200.2,38.8c0-.1-.1-.2-.2-.4,0-.1-.2-.2-.2-.3-.5-.5-1.2-.7-1.8-.5-.1,0-.2,0-.4.1-.1,0-.2.1-.3.2s-.2.2-.3.2-.2.2-.2.3-.1.2-.2.4c0,.1,0,.2-.1.4,0,.1,0,.3,0,.4,0,.5.2,1,.6,1.4s.2.2.3.2c.1,0,.2.1.3.2.1,0,.2,0,.4.1.1,0,.3,0,.4,0s.3,0,.4,0c.1,0,.2,0,.4-.1s.2-.1.3-.2c.1,0,.2-.2.3-.2,0-.1.2-.2.2-.3,0-.1.1-.2.2-.3s0-.2.1-.4c0-.1,0-.3,0-.4s0-.3,0-.4c0-.1,0-.2-.1-.4Z"/>
          <path class="cls-4" d="M219,4.8h-6.6c-1.1,0-2,.9-2,2s.9,2,2,2h6.6c1.1,0,2-.9,2-2s-.9-2-2-2Z"/>
          <path class="cls-4" d="M29.4,6.8c0-1.1-.9-2-2-2h-6.6c-1.1,0-2,.9-2,2s.9,2,2,2h6.6c1.1,0,2-.9,2-2Z"/>
          <path class="cls-4" d="M123.2,4.8h-6.6c-1.1,0-2,.9-2,2s.9,2,2,2h6.6c1.1,0,2-.9,2-2s-.9-2-2-2Z"/>
          <path class="cls-4" d="M312.2,38.5l-4.5-7.7c-1.7-3-5-4.9-8.4-4.9h-1.1c.2-.3.4-.6.6-.9,1.8-3,1.8-6.7,0-9.7l-4.5-7.7c-1.7-3-5-4.9-8.4-4.9h-1.1c.2-.3.4-.6.6-.9,1.8-3,1.8-6.7,0-9.7l-4.5-7.7c-1.7-3-5-4.9-8.4-4.9h-1.1c.2-.3.4-.6.6-.9,1.8-3,1.8-6.7,0-9.7-1.8-3-4.9-4.9-8.4-4.9s-.6,0-.9,0l1.6-2.7c1.8-3,1.8-6.7,0-9.7s-4.9-4.9-8.4-4.9h-80.3c-3.1,0-5.9,1.4-7.7,3.8-1.8-2.4-4.6-3.8-7.7-3.8h-80.3c-3.1,0-5.9,1.4-7.7,3.8-1.8-2.4-4.6-3.8-7.7-3.8H-16.1c-3.5,0-6.7,1.8-8.4,4.9-1.8,3-1.8,6.7,0,9.7l4.5,7.7c1.7,3,5,4.9,8.4,4.9h1.1c-.2.3-.4.6-.6.9-1.8,3-1.8,6.7,0,9.7l4.5,7.7C-5-4.6-1.7-2.8,1.7-2.8h1.1c-.2.3-.4.6-.6.9C.5,1.2.5,4.8,2.2,7.8l4.5,7.7c1.7,3,5,4.9,8.4,4.9h1.1c-.2.3-.4.6-.6.9-1.8,3-1.8,6.7,0,9.7,1.8,3,4.9,4.9,8.4,4.9s.6,0,.9,0l-1.6,2.7c-1.8,3-1.8,6.7,0,9.7,1.8,3,4.9,4.9,8.4,4.9h80.3c3.1,0,5.9-1.4,7.7-3.8,1.8,2.4,4.6,3.8,7.7,3.8h80.3c3.1,0,5.9-1.4,7.7-3.8,1.8,2.4,4.6,3.8,7.7,3.8h80.3c3.5,0,6.7-1.8,8.4-4.9,1.8-3,1.8-6.7,0-9.7ZM290.9,9.6l4.5,7.7c1,1.8,1,3.9,0,5.7-1,1.8-2.9,2.9-5,2.9h-53.6c-2.1,0-3.9-1.1-5-2.9-1-1.8-1-3.9,0-5.7l.3-.5c.3-.4.6-.8.9-1.3l4-6.9c1.1-1.2,2.6-1.9,4.3-1.9h44.6c2,0,3.9,1.1,5,2.9ZM215.7,37.4l-.9-1.5c.3,0,.6,0,.9,0,.3,0,.6,0,.9,0l-.9,1.5ZM119.9,37.4l-.9-1.5c.3,0,.6,0,.9,0s.6,0,.9,0l-.9,1.5ZM32.5,21.3c-.2-.3-.4-.6-.6-.9h1.1c.8,0,1.7-.1,2.5-.3,0,1.7.4,3.4,1.3,5,.2.3.4.6.6.9h-1.1c-.8,0-1.7.1-2.5.3,0-1.7-.4-3.4-1.3-5ZM40.2,23.1c-1-1.8-1-3.9,0-5.7l.3-.5c.3-.4.6-.8.9-1.3l4-6.9c1.1-1.2,2.6-1.9,4.3-1.9h44.6c1.6,0,3.2.7,4.3,1.9l4,6.9c.3.5.6.9.9,1.3l.3.5c1,1.8,1,3.9,0,5.7-1,1.8-2.9,2.9-5,2.9h-53.6c-2.1,0-3.9-1.1-5-2.9ZM45.9-1.9c-.2-.3-.4-.6-.6-.9h1.1c.8,0,1.7-.1,2.5-.3,0,1.7.4,3.4,1.3,5,.2.3.4.6.6.9h-1.1c-.8,0-1.7.1-2.5.3,0-1.7-.4-3.4-1.3-5ZM59.2-25.1c-.2-.3-.4-.6-.6-.9h1.1c.8,0,1.7-.1,2.5-.3,0,1.7.4,3.4,1.3,5,.2.3.4.6.6.9h-1.1c-.8,0-1.7.1-2.5.3,0-1.7-.4-3.4-1.3-5ZM71.9-37.4l.9,1.5c-.3,0-.6,0-.9,0s-.6,0-.9,0l.9-1.5ZM167.8-37.4l.9,1.5c-.3,0-.6,0-.9,0s-.6,0-.9,0l.9-1.5ZM255.2-21.3c.2.3.4.6.6.9h-1.1c-.8,0-1.7.1-2.5.3,0-1.7-.4-3.4-1.3-5-.2-.3-.4-.6-.6-.9h1.1c.8,0,1.7-.1,2.5-.3,0,1.7.4,3.4,1.3,5ZM247.4-23.1c1,1.8,1,3.9,0,5.7l-.3.5c-.3.4-.6.8-.9,1.3l-4,6.9c-1.1,1.2-2.6,1.9-4.3,1.9h-44.6c-1.6,0-3.2-.7-4.3-1.9l-4-6.9c-.3-.5-.6-.9-.9-1.3l-.3-.5c-1-1.8-1-3.9,0-5.7s2.9-2.9,5-2.9h53.6c2.1,0,3.9,1.1,5,2.9ZM241.8,1.9c.2.3.4.6.6.9h-1.1c-.8,0-1.7.1-2.5.3,0-1.7-.4-3.4-1.3-5-.2-.3-.4-.6-.6-.9h1.1c.8,0,1.7-.1,2.5-.3,0,1.7.4,3.4,1.3,5ZM232.9,7.6l-4,6.9c-1.1,1.2-2.6,1.9-4.3,1.9h-17.9c-1.6,0-3.2-.7-4.3-1.9l-4-6.9c-.3-.4-.6-.9-.9-1.3l-.3-.5c-1-1.8-1-3.9,0-5.7,1-1.8,2.9-2.9,5-2.9h26.8c2.1,0,3.9,1.1,5,2.9,1,1.8,1,3.9,0,5.7l-.3.5c-.3.4-.6.8-.9,1.3ZM220.7,23.3c1,1.8,1,3.9,0,5.7-1,1.8-2.9,2.9-5,2.9-2.1,0-3.9-1.1-5-2.9s-1-3.9,0-5.7,2.9-2.9,5-2.9,3.9,1.1,5,2.9ZM137,7.6l-4,6.9c-1.1,1.2-2.6,1.9-4.3,1.9h-17.9c-1.6,0-3.2-.7-4.3-1.9l-4-6.9c-.3-.5-.6-.9-.9-1.3l-.3-.5c-1-1.8-1-3.9,0-5.7,1-1.8,2.9-2.9,5-2.9h26.8c2.1,0,3.9,1.1,5,2.9,1,1.8,1,3.9,0,5.7l-.3.5c-.3.4-.6.8-.9,1.3ZM124.8,23.3c1,1.8,1,3.9,0,5.7-1,1.8-2.9,2.9-5,2.9s-3.9-1.1-5-2.9c-1-1.8-1-3.9,0-5.7,1-1.8,2.9-2.9,5-2.9s3.9,1.1,5,2.9ZM95.1-3.1c.8.2,1.6.3,2.5.3h1.1c-.2.3-.4.6-.6.9-.9,1.6-1.3,3.3-1.3,5-.8-.2-1.6-.3-2.5-.3h-1.1c.2-.3.4-.6.6-.9.9-1.6,1.3-3.3,1.3-5ZM141.7-1.9c-.2-.3-.4-.6-.6-.9h1.1c.8,0,1.7-.1,2.5-.3,0,1.7.4,3.4,1.3,5,.2.3.4.6.6.9h-1.1c-.8,0-1.7.1-2.5.3,0-1.7-.4-3.4-1.3-5ZM149.4-.1c-1-1.8-1-3.9,0-5.7l.3-.5c.3-.4.6-.8.9-1.3l4-6.9c1.1-1.2,2.6-1.9,4.3-1.9h17.9c1.6,0,3.2.7,4.3,1.9l4,6.9c.3.4.6.9.9,1.3l.3.5c1,1.8,1,3.9,0,5.7-1,1.8-2.9,2.9-5,2.9h-26.8c-2.1,0-3.9-1.1-5-2.9ZM162.8-23.3c-1-1.8-1-3.9,0-5.7,1-1.8,2.9-2.9,5-2.9s3.9,1.1,5,2.9c1,1.8,1,3.9,0,5.7-1,1.8-2.9,2.9-5,2.9s-3.9-1.1-5-2.9ZM189.6,1.9c.9-1.6,1.3-3.3,1.3-5,.8.2,1.6.3,2.5.3h1.1c-.2.3-.4.6-.6.9-.9,1.6-1.3,3.3-1.3,5-.8-.2-1.6-.3-2.5-.3h-1.1c.2-.3.4-.6.6-.9ZM180.5-25.1c-.9,1.6-1.3,3.3-1.3,5-.8-.2-1.6-.3-2.5-.3h-1.1c.2-.3.4-.6.6-.9.9-1.6,1.3-3.3,1.3-5,.8.2,1.6.3,2.5.3h1.1c-.2.3-.4.6-.6.9ZM159.3-21.3c.2.3.4.6.6.9h-1.1c-.8,0-1.7.1-2.5.3,0-1.7-.4-3.4-1.3-5-.2-.3-.4-.6-.6-.9h1.1c.8,0,1.7-.1,2.5-.3,0,1.7.4,3.4,1.3,5ZM151.6-23.1c1,1.8,1,3.9,0,5.7l-.3.5c-.3.4-.6.8-.9,1.3l-4,6.9c-1.1,1.2-2.6,1.9-4.3,1.9h-44.6c-1.6,0-3.2-.7-4.3-1.9l-4-6.9c-.3-.5-.6-.9-.9-1.3l-.3-.5c-1-1.8-1-3.9,0-5.7,1-1.8,2.9-2.9,5-2.9h53.6c2.1,0,3.9,1.1,5,2.9ZM84.7-25.1c-.9,1.6-1.3,3.3-1.3,5-.8-.2-1.6-.3-2.5-.3h-1.1c.2-.3.4-.6.6-.9.9-1.6,1.3-3.3,1.3-5,.8.2,1.6.3,2.5.3h1.1c-.2.3-.4.6-.6.9ZM67-23.3c-1-1.8-1-3.9,0-5.7,1-1.8,2.9-2.9,5-2.9s3.9,1.1,5,2.9c1,1.8,1,3.9,0,5.7-1,1.8-2.9,2.9-5,2.9s-3.9-1.1-5-2.9ZM54.8-7.6l4-6.9c1.1-1.2,2.6-1.9,4.3-1.9h17.9c1.6,0,3.2.7,4.3,1.9l4,6.9c.3.5.6.9.9,1.3l.3.5c1,1.8,1,3.9,0,5.7-1,1.8-2.9,2.9-5,2.9h-26.8c-2.1,0-3.9-1.1-5-2.9-1-1.8-1-3.9,0-5.7l.3-.5c.3-.4.6-.8.9-1.3ZM107.2,25.1c.9-1.6,1.3-3.3,1.3-5,.8.2,1.6.3,2.5.3h1.1c-.2.3-.4.6-.6.9-.9,1.6-1.3,3.3-1.3,5-.8-.2-1.6-.3-2.5-.3h-1.1c.2-.3.4-.6.6-.9ZM128.3,21.3c-.2-.3-.4-.6-.6-.9h1.1c.8,0,1.7-.1,2.5-.3,0,1.7.4,3.4,1.3,5,.2.3.4.6.6.9h-1.1c-.8,0-1.7.1-2.5.3,0-1.7-.4-3.4-1.3-5ZM136,23.1c-1-1.8-1-3.9,0-5.7l.3-.5c.3-.4.6-.8.9-1.3l4-6.9c1.1-1.2,2.6-1.9,4.3-1.9h44.6c1.6,0,3.2.7,4.3,1.9l4,6.9c.3.5.6.9.9,1.3l.3.5c1,1.8,1,3.9,0,5.7-1,1.8-2.9,2.9-5,2.9h-53.6c-2.1,0-3.9-1.1-5-2.9ZM203,25.1c.9-1.6,1.3-3.3,1.3-5,.8.2,1.6.3,2.5.3h1.1c-.2.3-.4.6-.6.9-.9,1.6-1.3,3.3-1.3,5-.8-.2-1.6-.3-2.5-.3h-1.1c.2-.3.4-.6.6-.9ZM224.1,21.3c-.2-.3-.4-.6-.6-.9h1.1c.8,0,1.7-.1,2.5-.3,0,1.7.4,3.4,1.3,5,.2.3.4.6.6.9h-1.1c-.8,0-1.7.1-2.5.3,0-1.7-.4-3.4-1.3-5ZM277.5-13.6l4.5,7.7c1,1.8,1,3.9,0,5.7-1,1.8-2.9,2.9-5,2.9h-26.8c-2.1,0-3.9-1.1-5-2.9-1-1.8-1-3.9,0-5.7l.3-.5c.3-.4.6-.8.9-1.3l4-6.9c1.1-1.2,2.6-1.9,4.3-1.9h17.9c2,0,3.9,1.1,5,2.9ZM268.6-29c1,1.8,1,3.9,0,5.7-1,1.8-2.9,2.9-5,2.9s-3.9-1.1-5-2.9c-1-1.8-1-3.9,0-5.7,1-1.8,2.9-2.9,5-2.9s3.9,1.1,5,2.9ZM175.5-49.1h80.3c2.1,0,3.9,1.1,5,2.9,1,1.8,1,3.9,0,5.7l-4.5,7.7c-1,1.8-2.9,2.9-5,2.9h-71.4c-2,0-3.9-1.1-5-2.9l-4.5-7.7c-.5-.9-.8-1.9-.8-2.9h0c0-1,.3-2,.8-2.9,1-1.8,2.9-2.9,5-2.9ZM79.7-49.1h80.3c2.1,0,3.9,1.1,5,2.9.5.9.8,1.9.8,2.9h0c0,1-.3,2-.8,2.9l-4.5,7.7c-1,1.8-2.9,2.9-5,2.9h-71.4c-2,0-3.9-1.1-5-2.9l-4.5-7.7c-.5-.9-.8-1.9-.8-2.9h0c0-1,.3-2,.8-2.9,1-1.8,2.9-2.9,5-2.9ZM-16.6-32.8l-4.5-7.7c-1-1.8-1-3.9,0-5.7,1-1.8,2.9-2.9,5-2.9h80.3c2.1,0,3.9,1.1,5,2.9.5.9.8,1.9.8,2.9h0c0,1-.3,2-.8,2.9l-4.5,7.7c-1,1.8-2.9,2.9-5,2.9H-11.7c-2,0-3.9-1.1-5-2.9ZM-3.2-9.6l-4.5-7.7c-1-1.8-1-3.9,0-5.7,1-1.8,2.9-2.9,5-2.9h53.6c2.1,0,3.9,1.1,5,2.9,1,1.8,1,3.9,0,5.7l-.3.5c-.3.4-.6.8-.9,1.3l-4,6.9c-1.1,1.2-2.6,1.9-4.3,1.9H1.7c-2,0-3.9-1.1-5-2.9ZM10.1,13.6l-4.5-7.7c-1-1.8-1-3.9,0-5.7,1-1.8,2.9-2.9,5-2.9h26.8c2.1,0,3.9,1.1,5,2.9,1,1.8,1,3.9,0,5.7l-.3.5c-.3.4-.6.8-.9,1.3l-4,6.9c-1.1,1.2-2.6,1.9-4.3,1.9H15.1c-2,0-3.9-1.1-5-2.9ZM19.1,29c-1-1.8-1-3.9,0-5.7,1-1.8,2.9-2.9,5-2.9s3.9,1.1,5,2.9c1,1.8,1,3.9,0,5.7-1,1.8-2.9,2.9-5,2.9s-3.9-1.1-5-2.9ZM112.1,49.1H31.8c-2.1,0-3.9-1.1-5-2.9-1-1.8-1-3.9,0-5.7l4.5-7.7c1-1.8,2.9-2.9,5-2.9h71.4c2,0,3.9,1.1,5,2.9l4.5,7.7c.5.9.8,1.9.8,2.9,0,0,0,0,0,0,0,1-.3,2-.8,2.9-1,1.8-2.9,2.9-5,2.9ZM207.9,49.1h-80.3c-2.1,0-3.9-1.1-5-2.9-.5-.9-.8-1.9-.8-2.9,0,0,0,0,0,0,0-1,.3-2,.8-2.9l4.5-7.7c1-1.8,2.9-2.9,5-2.9h71.4c2,0,3.9,1.1,5,2.9l4.5,7.7c.5.9.8,1.9.8,2.9h0c0,1-.3,2-.8,2.9-1,1.8-2.9,2.9-5,2.9ZM308.7,46.3c-1,1.8-2.9,2.9-5,2.9h-80.3c-2.1,0-3.9-1.1-5-2.9-.5-.9-.8-1.9-.8-2.9h0c0-1,.3-2,.8-2.9l4.5-7.7c1-1.8,2.9-2.9,5-2.9h71.4c2,0,3.9,1.1,5,2.9l4.5,7.7c1,1.8,1,3.9,0,5.7Z"/>
          <path class="cls-4" d="M269.1,14.4h-11.1c-1.1,0-2,.9-2,2s.9,2,2,2h11.1c1.1,0,2-.9,2-2s-.9-2-2-2Z"/>
          <path class="cls-4" d="M248.3,15.6c0-.1-.1-.2-.2-.3,0-.1-.2-.2-.2-.3-.5-.5-1.2-.7-1.8-.5-.1,0-.3,0-.4.1s-.2.1-.3.2c-.1,0-.2.2-.3.2,0,0-.2.2-.2.3,0,.1-.1.2-.2.3,0,.1,0,.2-.1.4,0,.1,0,.3,0,.4,0,.5.2,1,.6,1.4.4.4.9.6,1.4.6s.3,0,.4,0c.1,0,.2,0,.4-.1.1,0,.2-.1.4-.2.1,0,.2-.2.3-.3.4-.4.6-.9.6-1.4s0-.3,0-.4c0-.1,0-.2-.1-.4Z"/>
          <path class="cls-4" d="M282.4,37.5h-37.6c-1.1,0-2,.9-2,2s.9,2,2,2h37.6c1.1,0,2-.9,2-2s-.9-2-2-2Z"/>
          <path class="cls-4" d="M234.8,38.8c0-.1-.1-.2-.2-.4,0,0-.2-.2-.2-.3-.8-.7-2.1-.7-2.8,0,0,0-.2.2-.2.3,0,.1-.1.2-.2.4,0,.1,0,.2-.1.4,0,.1,0,.3,0,.4,0,.5.2,1,.6,1.4.4.4.9.6,1.4.6s1-.2,1.4-.6c.4-.4.6-.9.6-1.4s0-.3,0-.4c0-.1,0-.2-.1-.4Z"/>
        </g>
        <g>
          <path class="cls-4" d="M24.6,38.5l-4.5-7.7c-1.7-3-5-4.9-8.4-4.9h-1.1c.2-.3.4-.6.6-.9,1.8-3,1.8-6.7,0-9.7l-4.5-7.7C5,4.6,1.7,2.8-1.7,2.8h-1.1c.2-.3.4-.6.6-.9,1.8-3,1.8-6.7,0-9.7l-4.5-7.7c-1.7-3-5-4.9-8.4-4.9h-1.1c.2-.3.4-.6.6-.9,1.8-3,1.8-6.7,0-9.7-1.8-3-4.9-4.9-8.4-4.9s-.6,0-.9,0l1.6-2.7c1.8-3,1.8-6.7,0-9.7s-4.9-4.9-8.4-4.9h-80.3c-3.1,0-5.9,1.4-7.7,3.8-1.8-2.4-4.6-3.8-7.7-3.8h-80.3c-3.1,0-5.9,1.4-7.7,3.8-1.8-2.4-4.6-3.8-7.7-3.8h-80.3c-3.5,0-6.7,1.8-8.4,4.9-1.8,3-1.8,6.7,0,9.7l4.5,7.7c1.7,3,5,4.9,8.4,4.9h1.1c-.2.3-.4.6-.6.9-1.8,3-1.8,6.7,0,9.7l4.5,7.7c1.7,3,5,4.9,8.4,4.9h1.1c-.2.3-.4.6-.6.9-1.8,3-1.8,6.7,0,9.7l4.5,7.7c1.7,3,5,4.9,8.4,4.9h1.1c-.2.3-.4.6-.6.9-1.8,3-1.8,6.7,0,9.7,1.8,3,4.9,4.9,8.4,4.9s.6,0,.9,0l-1.6,2.7c-1.8,3-1.8,6.7,0,9.7,1.8,3,4.9,4.9,8.4,4.9h80.3c3.1,0,5.9-1.4,7.7-3.8,1.8,2.4,4.6,3.8,7.7,3.8h80.3c3.1,0,5.9-1.4,7.7-3.8,1.8,2.4,4.6,3.8,7.7,3.8H16.1c3.5,0,6.7-1.8,8.4-4.9,1.8-3,1.8-6.7,0-9.7ZM3.2,9.6l4.5,7.7c1,1.8,1,3.9,0,5.7-1,1.8-2.9,2.9-5,2.9h-53.6c-2.1,0-3.9-1.1-5-2.9-1-1.8-1-3.9,0-5.7l.3-.5c.3-.4.6-.8.9-1.3l4-6.9c1.1-1.2,2.6-1.9,4.3-1.9H-1.7c2,0,3.9,1.1,5,2.9ZM-72,37.4l-.9-1.5c.3,0,.6,0,.9,0,.3,0,.6,0,.9,0l-.9,1.5ZM-167.8,37.4l-.9-1.5c.3,0,.6,0,.9,0s.6,0,.9,0l-.9,1.5ZM-255.2,21.3c-.2-.3-.4-.6-.6-.9h1.1c.8,0,1.7-.1,2.5-.3,0,1.7.4,3.4,1.3,5,.2.3.4.6.6.9h-1.1c-.8,0-1.7.1-2.5.3,0-1.7-.4-3.4-1.3-5ZM-247.4,23.1c-1-1.8-1-3.9,0-5.7l.3-.5c.3-.4.6-.8.9-1.3l4-6.9c1.1-1.2,2.6-1.9,4.3-1.9h44.6c1.6,0,3.2.7,4.3,1.9l4,6.9c.3.5.6.9.9,1.3l.3.5c1,1.8,1,3.9,0,5.7-1,1.8-2.9,2.9-5,2.9h-53.6c-2.1,0-3.9-1.1-5-2.9ZM-241.8-1.9c-.2-.3-.4-.6-.6-.9h1.1c.8,0,1.7-.1,2.5-.3,0,1.7.4,3.4,1.3,5,.2.3.4.6.6.9h-1.1c-.8,0-1.7.1-2.5.3,0-1.7-.4-3.4-1.3-5ZM-228.4-25.1c-.2-.3-.4-.6-.6-.9h1.1c.8,0,1.7-.1,2.5-.3,0,1.7.4,3.4,1.3,5,.2.3.4.6.6.9h-1.1c-.8,0-1.7.1-2.5.3,0-1.7-.4-3.4-1.3-5ZM-215.7-37.4l.9,1.5c-.3,0-.6,0-.9,0s-.6,0-.9,0l.9-1.5ZM-119.9-37.4l.9,1.5c-.3,0-.6,0-.9,0s-.6,0-.9,0l.9-1.5ZM-32.5-21.3c.2.3.4.6.6.9h-1.1c-.8,0-1.7.1-2.5.3,0-1.7-.4-3.4-1.3-5-.2-.3-.4-.6-.6-.9h1.1c.8,0,1.7-.1,2.5-.3,0,1.7.4,3.4,1.3,5ZM-40.2-23.1c1,1.8,1,3.9,0,5.7l-.3.5c-.3.4-.6.8-.9,1.3l-4,6.9c-1.1,1.2-2.6,1.9-4.3,1.9h-44.6c-1.6,0-3.2-.7-4.3-1.9l-4-6.9c-.3-.5-.6-.9-.9-1.3l-.3-.5c-1-1.8-1-3.9,0-5.7s2.9-2.9,5-2.9h53.6c2.1,0,3.9,1.1,5,2.9ZM-45.9,1.9c.2.3.4.6.6.9h-1.1c-.8,0-1.7.1-2.5.3,0-1.7-.4-3.4-1.3-5-.2-.3-.4-.6-.6-.9h1.1c.8,0,1.7-.1,2.5-.3,0,1.7.4,3.4,1.3,5ZM-54.8,7.6l-4,6.9c-1.1,1.2-2.6,1.9-4.3,1.9h-17.9c-1.6,0-3.2-.7-4.3-1.9l-4-6.9c-.3-.4-.6-.9-.9-1.3l-.3-.5c-1-1.8-1-3.9,0-5.7,1-1.8,2.9-2.9,5-2.9h26.8c2.1,0,3.9,1.1,5,2.9,1,1.8,1,3.9,0,5.7l-.3.5c-.3.4-.6.8-.9,1.3ZM-67,23.3c1,1.8,1,3.9,0,5.7-1,1.8-2.9,2.9-5,2.9-2.1,0-3.9-1.1-5-2.9s-1-3.9,0-5.7,2.9-2.9,5-2.9,3.9,1.1,5,2.9ZM-150.6,7.6l-4,6.9c-1.1,1.2-2.6,1.9-4.3,1.9h-17.9c-1.6,0-3.2-.7-4.3-1.9l-4-6.9c-.3-.5-.6-.9-.9-1.3l-.3-.5c-1-1.8-1-3.9,0-5.7,1-1.8,2.9-2.9,5-2.9h26.8c2.1,0,3.9,1.1,5,2.9,1,1.8,1,3.9,0,5.7l-.3.5c-.3.4-.6.8-.9,1.3ZM-162.8,23.3c1,1.8,1,3.9,0,5.7-1,1.8-2.9,2.9-5,2.9s-3.9-1.1-5-2.9c-1-1.8-1-3.9,0-5.7,1-1.8,2.9-2.9,5-2.9s3.9,1.1,5,2.9ZM-192.6-3.1c.8.2,1.6.3,2.5.3h1.1c-.2.3-.4.6-.6.9-.9,1.6-1.3,3.3-1.3,5-.8-.2-1.6-.3-2.5-.3h-1.1c.2-.3.4-.6.6-.9.9-1.6,1.3-3.3,1.3-5ZM-146-1.9c-.2-.3-.4-.6-.6-.9h1.1c.8,0,1.7-.1,2.5-.3,0,1.7.4,3.4,1.3,5,.2.3.4.6.6.9h-1.1c-.8,0-1.7.1-2.5.3,0-1.7-.4-3.4-1.3-5ZM-138.2-.1c-1-1.8-1-3.9,0-5.7l.3-.5c.3-.4.6-.8.9-1.3l4-6.9c1.1-1.2,2.6-1.9,4.3-1.9h17.9c1.6,0,3.2.7,4.3,1.9l4,6.9c.3.4.6.9.9,1.3l.3.5c1,1.8,1,3.9,0,5.7-1,1.8-2.9,2.9-5,2.9h-26.8c-2.1,0-3.9-1.1-5-2.9ZM-124.8-23.3c-1-1.8-1-3.9,0-5.7,1-1.8,2.9-2.9,5-2.9s3.9,1.1,5,2.9c1,1.8,1,3.9,0,5.7-1,1.8-2.9,2.9-5,2.9s-3.9-1.1-5-2.9ZM-98,1.9c.9-1.6,1.3-3.3,1.3-5,.8.2,1.6.3,2.5.3h1.1c-.2.3-.4.6-.6.9-.9,1.6-1.3,3.3-1.3,5-.8-.2-1.6-.3-2.5-.3h-1.1c.2-.3.4-.6.6-.9ZM-107.2-25.1c-.9,1.6-1.3,3.3-1.3,5-.8-.2-1.6-.3-2.5-.3h-1.1c.2-.3.4-.6.6-.9.9-1.6,1.3-3.3,1.3-5,.8.2,1.6.3,2.5.3h1.1c-.2.3-.4.6-.6.9ZM-128.3-21.3c.2.3.4.6.6.9h-1.1c-.8,0-1.7.1-2.5.3,0-1.7-.4-3.4-1.3-5-.2-.3-.4-.6-.6-.9h1.1c.8,0,1.7-.1,2.5-.3,0,1.7.4,3.4,1.3,5ZM-136-23.1c1,1.8,1,3.9,0,5.7l-.3.5c-.3.4-.6.8-.9,1.3l-4,6.9c-1.1,1.2-2.6,1.9-4.3,1.9h-44.6c-1.6,0-3.2-.7-4.3-1.9l-4-6.9c-.3-.5-.6-.9-.9-1.3l-.3-.5c-1-1.8-1-3.9,0-5.7,1-1.8,2.9-2.9,5-2.9h53.6c2.1,0,3.9,1.1,5,2.9ZM-203-25.1c-.9,1.6-1.3,3.3-1.3,5-.8-.2-1.6-.3-2.5-.3h-1.1c.2-.3.4-.6.6-.9.9-1.6,1.3-3.3,1.3-5,.8.2,1.6.3,2.5.3h1.1c-.2.3-.4.6-.6.9ZM-220.7-23.3c-1-1.8-1-3.9,0-5.7,1-1.8,2.9-2.9,5-2.9s3.9,1.1,5,2.9c1,1.8,1,3.9,0,5.7-1,1.8-2.9,2.9-5,2.9s-3.9-1.1-5-2.9ZM-232.9-7.6l4-6.9c1.1-1.2,2.6-1.9,4.3-1.9h17.9c1.6,0,3.2.7,4.3,1.9l4,6.9c.3.5.6.9.9,1.3l.3.5c1,1.8,1,3.9,0,5.7-1,1.8-2.9,2.9-5,2.9h-26.8c-2.1,0-3.9-1.1-5-2.9-1-1.8-1-3.9,0-5.7l.3-.5c.3-.4.6-.8.9-1.3ZM-180.5,25.1c.9-1.6,1.3-3.3,1.3-5,.8.2,1.6.3,2.5.3h1.1c-.2.3-.4.6-.6.9-.9,1.6-1.3,3.3-1.3,5-.8-.2-1.6-.3-2.5-.3h-1.1c.2-.3.4-.6.6-.9ZM-159.4,21.3c-.2-.3-.4-.6-.6-.9h1.1c.8,0,1.7-.1,2.5-.3,0,1.7.4,3.4,1.3,5,.2.3.4.6.6.9h-1.1c-.8,0-1.7.1-2.5.3,0-1.7-.4-3.4-1.3-5ZM-151.6,23.1c-1-1.8-1-3.9,0-5.7l.3-.5c.3-.4.6-.8.9-1.3l4-6.9c1.1-1.2,2.6-1.9,4.3-1.9h44.6c1.6,0,3.2.7,4.3,1.9l4,6.9c.3.5.6.9.9,1.3l.3.5c1,1.8,1,3.9,0,5.7-1,1.8-2.9,2.9-5,2.9h-53.6c-2.1,0-3.9-1.1-5-2.9ZM-84.7,25.1c.9-1.6,1.3-3.3,1.3-5,.8.2,1.6.3,2.5.3h1.1c-.2.3-.4.6-.6.9-.9,1.6-1.3,3.3-1.3,5-.8-.2-1.6-.3-2.5-.3h-1.1c.2-.3.4-.6.6-.9ZM-63.5,21.3c-.2-.3-.4-.6-.6-.9h1.1c.8,0,1.7-.1,2.5-.3,0,1.7.4,3.4,1.3,5,.2.3.4.6.6.9h-1.1c-.8,0-1.7.1-2.5.3,0-1.7-.4-3.4-1.3-5ZM-10.1-13.6l4.5,7.7c1,1.8,1,3.9,0,5.7-1,1.8-2.9,2.9-5,2.9h-26.8c-2.1,0-3.9-1.1-5-2.9-1-1.8-1-3.9,0-5.7l.3-.5c.3-.4.6-.8.9-1.3l4-6.9c1.1-1.2,2.6-1.9,4.3-1.9H-15.1c2,0,3.9,1.1,5,2.9ZM-19.1-29c1,1.8,1,3.9,0,5.7-1,1.8-2.9,2.9-5,2.9s-3.9-1.1-5-2.9c-1-1.8-1-3.9,0-5.7,1-1.8,2.9-2.9,5-2.9s3.9,1.1,5,2.9ZM-112.1-49.1H-31.8c2.1,0,3.9,1.1,5,2.9,1,1.8,1,3.9,0,5.7l-4.5,7.7c-1,1.8-2.9,2.9-5,2.9h-71.4c-2,0-3.9-1.1-5-2.9l-4.5-7.7c-.5-.9-.8-1.9-.8-2.9h0c0-1,.3-2,.8-2.9,1-1.8,2.9-2.9,5-2.9ZM-208-49.1h80.3c2.1,0,3.9,1.1,5,2.9.5.9.8,1.9.8,2.9h0c0,1-.3,2-.8,2.9l-4.5,7.7c-1,1.8-2.9,2.9-5,2.9h-71.4c-2,0-3.9-1.1-5-2.9l-4.5-7.7c-.5-.9-.8-1.9-.8-2.9h0c0-1,.3-2,.8-2.9,1-1.8,2.9-2.9,5-2.9ZM-304.3-32.8l-4.5-7.7c-1-1.8-1-3.9,0-5.7,1-1.8,2.9-2.9,5-2.9h80.3c2.1,0,3.9,1.1,5,2.9.5.9.8,1.9.8,2.9h0c0,1-.3,2-.8,2.9l-4.5,7.7c-1,1.8-2.9,2.9-5,2.9h-71.4c-2,0-3.9-1.1-5-2.9ZM-290.9-9.6l-4.5-7.7c-1-1.8-1-3.9,0-5.7,1-1.8,2.9-2.9,5-2.9h53.6c2.1,0,3.9,1.1,5,2.9,1,1.8,1,3.9,0,5.7l-.3.5c-.3.4-.6.8-.9,1.3l-4,6.9c-1.1,1.2-2.6,1.9-4.3,1.9h-44.6c-2,0-3.9-1.1-5-2.9ZM-277.5,13.6l-4.5-7.7c-1-1.8-1-3.9,0-5.7,1-1.8,2.9-2.9,5-2.9h26.8c2.1,0,3.9,1.1,5,2.9,1,1.8,1,3.9,0,5.7l-.3.5c-.3.4-.6.8-.9,1.3l-4,6.9c-1.1,1.2-2.6,1.9-4.3,1.9h-17.9c-2,0-3.9-1.1-5-2.9ZM-268.6,29c-1-1.8-1-3.9,0-5.7,1-1.8,2.9-2.9,5-2.9s3.9,1.1,5,2.9c1,1.8,1,3.9,0,5.7-1,1.8-2.9,2.9-5,2.9s-3.9-1.1-5-2.9ZM-175.5,49.1h-80.3c-2.1,0-3.9-1.1-5-2.9-1-1.8-1-3.9,0-5.7l4.5-7.7c1-1.8,2.9-2.9,5-2.9h71.4c2,0,3.9,1.1,5,2.9l4.5,7.7c.5.9.8,1.9.8,2.9,0,0,0,0,0,0,0,1-.3,2-.8,2.9-1,1.8-2.9,2.9-5,2.9ZM-79.7,49.1h-80.3c-2.1,0-3.9-1.1-5-2.9-.5-.9-.8-1.9-.8-2.9,0,0,0,0,0,0,0-1,.3-2,.8-2.9l4.5-7.7c1-1.8,2.9-2.9,5-2.9h71.4c2,0,3.9,1.1,5,2.9l4.5,7.7c.5.9.8,1.9.8,2.9h0c0,1-.3,2-.8,2.9-1,1.8-2.9,2.9-5,2.9ZM21.1,46.3c-1,1.8-2.9,2.9-5,2.9h-80.3c-2.1,0-3.9-1.1-5-2.9-.5-.9-.8-1.9-.8-2.9h0c0-1,.3-2,.8-2.9l4.5-7.7c1-1.8,2.9-2.9,5-2.9H11.7c2,0,3.9,1.1,5,2.9l4.5,7.7c1,1.8,1,3.9,0,5.7Z"/>
          <path class="cls-4" d="M5.2,38.1c0,0-.2.2-.2.3,0,.1-.1.2-.2.4,0,.1,0,.2-.1.4,0,.1,0,.3,0,.4,0,.5.2,1,.6,1.4s.9.6,1.4.6,1-.2,1.4-.6c.4-.4.6-.9.6-1.4s-.2-1-.6-1.4c-.8-.8-2.1-.7-2.8,0Z"/>
        </g>
      </g>
    </pattern>
  </defs>
  <!-- Generator: Adobe Illustrator 28.7.3, SVG Export Plug-In . SVG Version: 1.2.0 Build 164)  -->
  <g>
    <g id="Background">
      <rect class="cls-3" x="0" y="0" width="1417.3" height="1417.3"/>
    </g>
    <g id="Pattern">
      <rect class="cls-2" x="0" y="0" width="1417.3" height="1417.3"/>
    </g>
  </g>
</svg>